# Blender 4.0.2
# www.blender.org
mtllib Chicken_Ball.mtl
o Chicken_Ball
v 0.000000 0.122223 0.000000
v 0.013997 0.132916 0.010169
v -0.005346 0.132916 0.016454
v -0.017301 0.132916 0.000000
v -0.005346 0.132916 -0.016454
v 0.013997 0.132916 -0.010169
v 0.005346 0.150217 0.016454
v -0.013997 0.150217 0.010169
v -0.013997 0.150217 -0.010169
v 0.005346 0.150217 -0.016454
v 0.017301 0.150217 0.000000
v 0.000000 0.160910 0.000000
v -0.003142 0.125112 0.009672
v 0.008227 0.125112 0.005977
v 0.005085 0.131397 0.015649
v 0.016454 0.131397 0.000000
v 0.008227 0.125112 -0.005977
v -0.010169 0.125112 0.000000
v -0.013312 0.131397 0.009672
v -0.003142 0.125112 -0.009672
v -0.013312 0.131397 -0.009672
v 0.005085 0.131397 -0.015649
v 0.018397 0.141567 0.005977
v 0.018397 0.141567 -0.005977
v 0.000000 0.141567 0.019343
v 0.011370 0.141567 0.015649
v -0.018397 0.141567 0.005977
v -0.011370 0.141567 0.015649
v -0.011370 0.141567 -0.015649
v -0.018397 0.141567 -0.005977
v 0.011370 0.141567 -0.015649
v 0.000000 0.141567 -0.019343
v 0.013312 0.151736 0.009672
v -0.005085 0.151736 0.015649
v -0.016454 0.151736 0.000000
v -0.005085 0.151736 -0.015649
v 0.013312 0.151736 -0.009672
v 0.003142 0.158021 0.009672
v 0.010169 0.158021 0.000000
v -0.008227 0.158021 0.005977
v -0.008227 0.158021 -0.005977
v 0.003142 0.158021 -0.009672
v 0.000000 0.033205 0.000000
v 0.013997 0.043898 0.010169
v -0.005346 0.043898 0.016454
v -0.017301 0.043898 0.000000
v -0.005346 0.043898 -0.016454
v 0.013997 0.043898 -0.010169
v 0.005346 0.061199 0.016454
v -0.013997 0.061199 0.010169
v -0.013997 0.061199 -0.010169
v 0.005346 0.061199 -0.016454
v 0.017301 0.061199 0.000000
v 0.000000 0.071892 0.000000
v -0.003142 0.036094 0.009672
v 0.008227 0.036094 0.005977
v 0.005085 0.042379 0.015649
v 0.016454 0.042379 0.000000
v 0.008227 0.036094 -0.005977
v -0.010169 0.036094 0.000000
v -0.013312 0.042379 0.009672
v -0.003142 0.036094 -0.009672
v -0.013312 0.042379 -0.009672
v 0.005085 0.042379 -0.015649
v 0.018397 0.052548 0.005977
v 0.018397 0.052548 -0.005977
v 0.000000 0.052548 0.019343
v 0.011370 0.052548 0.015649
v -0.018397 0.052548 0.005977
v -0.011370 0.052548 0.015649
v -0.011370 0.052548 -0.015649
v -0.018397 0.052548 -0.005977
v 0.011370 0.052548 -0.015649
v 0.000000 0.052548 -0.019343
v 0.013312 0.062718 0.009672
v -0.005085 0.062718 0.015649
v -0.016454 0.062718 0.000000
v -0.005085 0.062718 -0.015649
v 0.013312 0.062718 -0.009672
v 0.003142 0.069003 0.009672
v 0.010169 0.069003 0.000000
v -0.008227 0.069003 0.005977
v -0.008227 0.069003 -0.005977
v 0.003142 0.069003 -0.009672
v 0.000000 0.078197 0.000000
v 0.013997 0.088890 0.010169
v -0.005346 0.088890 0.016454
v -0.017301 0.088890 0.000000
v -0.005346 0.088890 -0.016454
v 0.013997 0.088890 -0.010169
v 0.005346 0.106191 0.016454
v -0.013997 0.106191 0.010169
v -0.013997 0.106191 -0.010169
v 0.005346 0.106191 -0.016454
v 0.017301 0.106191 0.000000
v 0.000000 0.116884 0.000000
v -0.003142 0.081086 0.009672
v 0.008227 0.081086 0.005977
v 0.005085 0.087371 0.015649
v 0.016454 0.087371 0.000000
v 0.008227 0.081086 -0.005977
v -0.010169 0.081086 0.000000
v -0.013312 0.087371 0.009672
v -0.003142 0.081086 -0.009672
v -0.013312 0.087371 -0.009672
v 0.005085 0.087371 -0.015649
v 0.018397 0.097540 0.005977
v 0.018397 0.097540 -0.005977
v 0.000000 0.097540 0.019343
v 0.011370 0.097540 0.015649
v -0.018397 0.097540 0.005977
v -0.011370 0.097540 0.015649
v -0.011370 0.097540 -0.015649
v -0.018397 0.097540 -0.005977
v 0.011370 0.097540 -0.015649
v 0.000000 0.097540 -0.019343
v 0.013312 0.107710 0.009672
v -0.005085 0.107710 0.015649
v -0.016454 0.107710 0.000000
v -0.005085 0.107710 -0.015649
v 0.013312 0.107710 -0.009672
v 0.003142 0.113995 0.009672
v 0.010169 0.113995 0.000000
v -0.008227 0.113995 0.005977
v -0.008227 0.113995 -0.005977
v 0.003142 0.113995 -0.009672
v -0.001140 0.173447 -0.001140
v -0.001612 0.173447 -0.000000
v -0.001140 0.173447 0.001140
v 0.000000 0.173447 0.001612
v 0.000000 0.000000 -0.000000
v 0.001140 0.173447 0.001140
v 0.000000 0.183846 0.000000
v 0.001612 0.173447 -0.000000
v 0.001140 0.173447 -0.001140
v 0.000000 0.174926 -0.001495
v 0.001057 0.174926 -0.001057
v 0.001495 0.174926 -0.000000
v 0.001057 0.174926 0.001057
v 0.000000 0.174926 0.001495
v -0.001057 0.174926 0.001057
v -0.001495 0.174926 -0.000000
v -0.001057 0.174926 -0.001057
v 0.000000 0.173447 -0.001612
v 0.000000 0.000000 -0.001970
v 0.001393 0.000000 -0.001393
v 0.001970 0.000000 -0.000000
v 0.001393 0.000000 0.001393
v 0.000000 0.000000 0.001970
v -0.001393 0.000000 0.001393
v -0.001970 0.000000 -0.000000
v -0.001393 0.000000 -0.001393
vn 0.1024 -0.9435 0.3151
vn 0.7002 -0.6617 0.2680
vn -0.2680 -0.9435 0.1947
vn -0.2680 -0.9435 -0.1947
vn 0.1024 -0.9435 -0.3151
vn 0.9050 -0.3304 0.2680
vn 0.0247 -0.3304 0.9435
vn -0.8897 -0.3304 0.3151
vn -0.5746 -0.3304 -0.7488
vn 0.5346 -0.3304 -0.7779
vn 0.8026 -0.1256 0.5831
vn -0.3066 -0.1256 0.9435
vn -0.9921 -0.1256 -0.0000
vn -0.3066 -0.1256 -0.9435
vn 0.8026 -0.1256 -0.5831
vn 0.4089 0.6617 0.6284
vn -0.4713 0.6617 0.5831
vn -0.7002 0.6617 -0.2680
vn 0.0385 0.6617 -0.7488
vn 0.7240 0.6617 -0.1947
vn 0.2680 0.9435 -0.1947
vn 0.4911 0.7947 -0.3568
vn 0.4089 0.6617 -0.6284
vn -0.1024 0.9435 -0.3151
vn -0.1876 0.7947 -0.5773
vn -0.4713 0.6617 -0.5831
vn -0.3313 0.9435 -0.0000
vn -0.6071 0.7947 -0.0000
vn -0.7002 0.6617 0.2680
vn -0.1024 0.9435 0.3151
vn -0.1876 0.7947 0.5773
vn 0.0385 0.6617 0.7488
vn 0.2680 0.9435 0.1947
vn 0.4911 0.7947 0.3568
vn 0.7240 0.6617 0.1947
vn 0.8897 0.3304 -0.3151
vn 0.7947 0.1876 -0.5773
vn 0.5746 0.3304 -0.7488
vn -0.0247 0.3304 -0.9435
vn -0.3035 0.1876 -0.9342
vn -0.5346 0.3304 -0.7779
vn -0.9050 0.3304 -0.2680
vn -0.9822 0.1876 -0.0000
vn -0.9050 0.3304 0.2680
vn -0.5346 0.3304 0.7779
vn -0.3035 0.1876 0.9342
vn -0.0247 0.3304 0.9435
vn 0.5746 0.3304 0.7488
vn 0.7947 0.1876 0.5773
vn 0.8897 0.3304 0.3151
vn 0.3066 0.1256 -0.9435
vn 0.3035 -0.1876 -0.9342
vn 0.0247 -0.3304 -0.9435
vn -0.8026 0.1256 -0.5831
vn -0.7947 -0.1876 -0.5773
vn -0.8897 -0.3304 -0.3151
vn -0.8026 0.1256 0.5831
vn -0.7947 -0.1876 0.5773
vn -0.5746 -0.3304 0.7488
vn 0.3066 0.1256 0.9435
vn 0.3035 -0.1876 0.9342
vn 0.5346 -0.3304 0.7779
vn 0.9921 0.1256 -0.0000
vn 0.9822 -0.1876 -0.0000
vn 0.9050 -0.3304 -0.2680
vn 0.4713 -0.6617 -0.5831
vn 0.1876 -0.7947 -0.5773
vn -0.0385 -0.6617 -0.7488
vn -0.4089 -0.6617 -0.6284
vn -0.4911 -0.7947 -0.3568
vn -0.7240 -0.6617 -0.1947
vn -0.7240 -0.6617 0.1947
vn -0.4911 -0.7947 0.3568
vn -0.4089 -0.6617 0.6284
vn 0.7002 -0.6617 -0.2680
vn 0.6071 -0.7947 -0.0000
vn 0.3313 -0.9435 -0.0000
vn -0.0385 -0.6617 0.7488
vn 0.1876 -0.7947 0.5773
vn 0.4713 -0.6617 0.5831
vn 0.3782 0.1530 -0.9130
vn 0.9130 0.1530 -0.3782
vn 0.9130 0.1530 0.3782
vn 0.3782 0.1530 0.9130
vn -0.3782 0.1530 0.9130
vn -0.9130 0.1530 0.3782
vn -0.9239 0.0019 0.3827
vn -0.9130 0.1530 -0.3782
vn -0.3782 0.1530 -0.9130
vn -0.3817 0.0727 -0.9214
vn -0.9214 0.0727 -0.3817
vn -0.9214 0.0727 0.3817
vn -0.3817 0.0727 0.9214
vn 0.3817 0.0727 0.9214
vn 0.9214 0.0727 0.3817
vn 0.9214 0.0727 -0.3817
vn 0.3817 0.0727 -0.9214
vn -0.3827 0.0019 0.9239
vn 0.3827 0.0019 0.9239
vn 0.9239 0.0019 0.3827
vn 0.9239 0.0019 -0.3827
vn 0.3827 0.0019 -0.9239
vn -0.9239 0.0019 -0.3827
vn -0.3827 0.0019 -0.9239
vn -0.0000 -1.0000 -0.0000
vt 0.033222 0.268980
vt 0.037330 0.276096
vt 0.029113 0.276096
vt 0.041439 0.283212
vt 0.045547 0.276096
vt 0.049655 0.283212
vt 0.098956 0.268980
vt 0.103065 0.276096
vt 0.094848 0.276096
vt 0.082523 0.268980
vt 0.086631 0.276096
vt 0.078414 0.276096
vt 0.066089 0.268980
vt 0.070198 0.276096
vt 0.061981 0.276096
vt 0.045547 0.290328
vt 0.025005 0.283212
vt 0.033222 0.283212
vt 0.029113 0.290328
vt 0.090740 0.283212
vt 0.098956 0.283212
vt 0.094848 0.290328
vt 0.074306 0.283212
vt 0.082523 0.283212
vt 0.078414 0.290328
vt 0.057872 0.283212
vt 0.066089 0.283212
vt 0.061981 0.290328
vt 0.037330 0.290328
vt 0.020896 0.290328
vt 0.086631 0.290328
vt 0.070198 0.290328
vt 0.053764 0.290328
vt 0.033222 0.297444
vt 0.041439 0.297444
vt 0.037330 0.304560
vt 0.016788 0.297444
vt 0.025005 0.297444
vt 0.020896 0.304560
vt 0.082523 0.297444
vt 0.090740 0.297444
vt 0.086631 0.304560
vt 0.066089 0.297444
vt 0.074306 0.297444
vt 0.070198 0.304560
vt 0.049655 0.297444
vt 0.057872 0.297444
vt 0.053764 0.304560
vt 0.061981 0.304560
vt 0.057872 0.311676
vt 0.078414 0.304560
vt 0.074306 0.311676
vt 0.094848 0.304560
vt 0.090740 0.311676
vt 0.098956 0.297444
vt 0.029113 0.304560
vt 0.025005 0.311676
vt 0.045547 0.304560
vt 0.041439 0.311676
vt 0.103065 0.290328
vt 0.107173 0.283212
vt 0.053764 0.276096
vt 0.049655 0.268980
vt 0.471028 0.587568
vt 0.462646 0.588974
vt 0.462646 0.587568
vt 0.454264 0.588974
vt 0.454264 0.587568
vt 0.445882 0.588974
vt 0.445882 0.587568
vt 0.437500 0.588974
vt 0.437500 0.587568
vt 0.429118 0.588974
vt 0.429118 0.587568
vt 0.420736 0.588974
vt 0.420736 0.587568
vt 0.429118 0.555446
vt 0.429118 0.587335
vt 0.420736 0.587335
vt 0.420736 0.555446
vt 0.412354 0.588974
vt 0.412354 0.587568
vt 0.403972 0.588974
vt 0.403972 0.587568
vt 0.412354 0.587335
vt 0.403972 0.587335
vt 0.437500 0.587335
vt 0.445882 0.587335
vt 0.454264 0.587335
vt 0.462646 0.587335
vt 0.471028 0.587335
vt 0.437500 0.555446
vt 0.445882 0.555446
vt 0.454264 0.555446
vt 0.462646 0.555446
vt 0.471028 0.555446
vt 0.412354 0.555446
vt 0.403972 0.555446
vt 0.454264 0.544958
vt 0.454264 0.554775
vt 0.465644 0.550062
vt 0.458702 0.543120
vt 0.470357 0.538682
vt 0.460540 0.538682
vt 0.465644 0.527302
vt 0.458702 0.534244
vt 0.454264 0.522589
vt 0.454264 0.532406
vt 0.442884 0.527302
vt 0.449826 0.534244
vt 0.438171 0.538682
vt 0.447988 0.538682
vt 0.442884 0.550062
vt 0.449826 0.543120
s 0
usemtl Food_Color_mat
f 1/1/1 14/2/1 13/3/1
f 2/4/2 14/5/2 16/6/2
f 1/7/3 13/8/3 18/9/3
f 1/10/4 18/11/4 20/12/4
f 1/13/5 20/14/5 17/15/5
f 2/4/6 16/6/6 23/16/6
f 3/17/7 15/18/7 25/19/7
f 4/20/8 19/21/8 27/22/8
f 5/23/9 21/24/9 29/25/9
f 6/26/10 22/27/10 31/28/10
f 2/4/11 23/16/11 26/29/11
f 3/17/12 25/19/12 28/30/12
f 4/20/13 27/22/13 30/31/13
f 5/23/14 29/25/14 32/32/14
f 6/26/15 31/28/15 24/33/15
f 7/34/16 33/35/16 38/36/16
f 8/37/17 34/38/17 40/39/17
f 9/40/18 35/41/18 41/42/18
f 10/43/19 36/44/19 42/45/19
f 11/46/20 37/47/20 39/48/20
f 39/48/21 42/49/21 12/50/21
f 39/48/22 37/47/22 42/49/22
f 37/47/23 10/43/23 42/49/23
f 42/45/24 41/51/24 12/52/24
f 42/45/25 36/44/25 41/51/25
f 36/44/26 9/40/26 41/51/26
f 41/42/27 40/53/27 12/54/27
f 41/42/28 35/41/28 40/53/28
f 35/41/29 8/55/29 40/53/29
f 40/39/30 38/56/30 12/57/30
f 40/39/31 34/38/31 38/56/31
f 34/38/32 7/34/32 38/56/32
f 38/36/33 39/58/33 12/59/33
f 38/36/34 33/35/34 39/58/34
f 33/35/35 11/46/35 39/58/35
f 24/33/36 37/47/36 11/46/36
f 24/33/37 31/28/37 37/47/37
f 31/28/38 10/43/38 37/47/38
f 32/32/39 36/44/39 10/43/39
f 32/32/40 29/25/40 36/44/40
f 29/25/41 9/40/41 36/44/41
f 30/31/42 35/41/42 9/40/42
f 30/31/43 27/22/43 35/41/43
f 27/22/44 8/55/44 35/41/44
f 28/30/45 34/38/45 8/37/45
f 28/30/46 25/19/46 34/38/46
f 25/19/47 7/34/47 34/38/47
f 26/29/48 33/35/48 7/34/48
f 26/29/49 23/16/49 33/35/49
f 23/16/50 11/46/50 33/35/50
f 31/28/51 32/32/51 10/43/51
f 31/28/52 22/27/52 32/32/52
f 22/27/53 5/23/53 32/32/53
f 29/25/54 30/31/54 9/40/54
f 29/25/55 21/24/55 30/31/55
f 21/24/56 4/20/56 30/31/56
f 27/22/57 28/60/57 8/55/57
f 27/22/58 19/21/58 28/60/58
f 19/21/59 3/61/59 28/60/59
f 25/19/60 26/29/60 7/34/60
f 25/19/61 15/18/61 26/29/61
f 15/18/62 2/4/62 26/29/62
f 23/16/63 24/33/63 11/46/63
f 23/16/64 16/6/64 24/33/64
f 16/6/65 6/26/65 24/33/65
f 17/15/66 22/27/66 6/26/66
f 17/15/67 20/14/67 22/27/67
f 20/14/68 5/23/68 22/27/68
f 20/12/69 21/24/69 5/23/69
f 20/12/70 18/11/70 21/24/70
f 18/11/71 4/20/71 21/24/71
f 18/9/72 19/21/72 4/20/72
f 18/9/73 13/8/73 19/21/73
f 13/8/74 3/61/74 19/21/74
f 16/6/75 17/62/75 6/26/75
f 16/6/76 14/5/76 17/62/76
f 14/5/77 1/63/77 17/62/77
f 13/3/78 15/18/78 3/17/78
f 13/3/79 14/2/79 15/18/79
f 14/2/80 2/4/80 15/18/80
f 43/1/1 56/2/1 55/3/1
f 44/4/2 56/5/2 58/6/2
f 43/7/3 55/8/3 60/9/3
f 43/10/4 60/11/4 62/12/4
f 43/13/5 62/14/5 59/15/5
f 44/4/6 58/6/6 65/16/6
f 45/17/7 57/18/7 67/19/7
f 46/20/8 61/21/8 69/22/8
f 47/23/9 63/24/9 71/25/9
f 48/26/10 64/27/10 73/28/10
f 44/4/11 65/16/11 68/29/11
f 45/17/12 67/19/12 70/30/12
f 46/20/13 69/22/13 72/31/13
f 47/23/14 71/25/14 74/32/14
f 48/26/15 73/28/15 66/33/15
f 49/34/16 75/35/16 80/36/16
f 50/37/17 76/38/17 82/39/17
f 51/40/18 77/41/18 83/42/18
f 52/43/19 78/44/19 84/45/19
f 53/46/20 79/47/20 81/48/20
f 81/48/21 84/49/21 54/50/21
f 81/48/22 79/47/22 84/49/22
f 79/47/23 52/43/23 84/49/23
f 84/45/24 83/51/24 54/52/24
f 84/45/25 78/44/25 83/51/25
f 78/44/26 51/40/26 83/51/26
f 83/42/27 82/53/27 54/54/27
f 83/42/28 77/41/28 82/53/28
f 77/41/29 50/55/29 82/53/29
f 82/39/30 80/56/30 54/57/30
f 82/39/31 76/38/31 80/56/31
f 76/38/32 49/34/32 80/56/32
f 80/36/33 81/58/33 54/59/33
f 80/36/34 75/35/34 81/58/34
f 75/35/35 53/46/35 81/58/35
f 66/33/36 79/47/36 53/46/36
f 66/33/37 73/28/37 79/47/37
f 73/28/38 52/43/38 79/47/38
f 74/32/39 78/44/39 52/43/39
f 74/32/40 71/25/40 78/44/40
f 71/25/41 51/40/41 78/44/41
f 72/31/42 77/41/42 51/40/42
f 72/31/43 69/22/43 77/41/43
f 69/22/44 50/55/44 77/41/44
f 70/30/45 76/38/45 50/37/45
f 70/30/46 67/19/46 76/38/46
f 67/19/47 49/34/47 76/38/47
f 68/29/48 75/35/48 49/34/48
f 68/29/49 65/16/49 75/35/49
f 65/16/50 53/46/50 75/35/50
f 73/28/51 74/32/51 52/43/51
f 73/28/52 64/27/52 74/32/52
f 64/27/53 47/23/53 74/32/53
f 71/25/54 72/31/54 51/40/54
f 71/25/55 63/24/55 72/31/55
f 63/24/56 46/20/56 72/31/56
f 69/22/57 70/60/57 50/55/57
f 69/22/58 61/21/58 70/60/58
f 61/21/59 45/61/59 70/60/59
f 67/19/60 68/29/60 49/34/60
f 67/19/61 57/18/61 68/29/61
f 57/18/62 44/4/62 68/29/62
f 65/16/63 66/33/63 53/46/63
f 65/16/64 58/6/64 66/33/64
f 58/6/65 48/26/65 66/33/65
f 59/15/66 64/27/66 48/26/66
f 59/15/67 62/14/67 64/27/67
f 62/14/68 47/23/68 64/27/68
f 62/12/69 63/24/69 47/23/69
f 62/12/70 60/11/70 63/24/70
f 60/11/71 46/20/71 63/24/71
f 60/9/72 61/21/72 46/20/72
f 60/9/73 55/8/73 61/21/73
f 55/8/74 45/61/74 61/21/74
f 58/6/75 59/62/75 48/26/75
f 58/6/76 56/5/76 59/62/76
f 56/5/77 43/63/77 59/62/77
f 55/3/78 57/18/78 45/17/78
f 55/3/79 56/2/79 57/18/79
f 56/2/80 44/4/80 57/18/80
f 85/1/1 98/2/1 97/3/1
f 86/4/2 98/5/2 100/6/2
f 85/7/3 97/8/3 102/9/3
f 85/10/4 102/11/4 104/12/4
f 85/13/5 104/14/5 101/15/5
f 86/4/6 100/6/6 107/16/6
f 87/17/7 99/18/7 109/19/7
f 88/20/8 103/21/8 111/22/8
f 89/23/9 105/24/9 113/25/9
f 90/26/10 106/27/10 115/28/10
f 86/4/11 107/16/11 110/29/11
f 87/17/12 109/19/12 112/30/12
f 88/20/13 111/22/13 114/31/13
f 89/23/14 113/25/14 116/32/14
f 90/26/15 115/28/15 108/33/15
f 91/34/16 117/35/16 122/36/16
f 92/37/17 118/38/17 124/39/17
f 93/40/18 119/41/18 125/42/18
f 94/43/19 120/44/19 126/45/19
f 95/46/20 121/47/20 123/48/20
f 123/48/21 126/49/21 96/50/21
f 123/48/22 121/47/22 126/49/22
f 121/47/23 94/43/23 126/49/23
f 126/45/24 125/51/24 96/52/24
f 126/45/25 120/44/25 125/51/25
f 120/44/26 93/40/26 125/51/26
f 125/42/27 124/53/27 96/54/27
f 125/42/28 119/41/28 124/53/28
f 119/41/29 92/55/29 124/53/29
f 124/39/30 122/56/30 96/57/30
f 124/39/31 118/38/31 122/56/31
f 118/38/32 91/34/32 122/56/32
f 122/36/33 123/58/33 96/59/33
f 122/36/34 117/35/34 123/58/34
f 117/35/35 95/46/35 123/58/35
f 108/33/36 121/47/36 95/46/36
f 108/33/37 115/28/37 121/47/37
f 115/28/38 94/43/38 121/47/38
f 116/32/39 120/44/39 94/43/39
f 116/32/40 113/25/40 120/44/40
f 113/25/41 93/40/41 120/44/41
f 114/31/42 119/41/42 93/40/42
f 114/31/43 111/22/43 119/41/43
f 111/22/44 92/55/44 119/41/44
f 112/30/45 118/38/45 92/37/45
f 112/30/46 109/19/46 118/38/46
f 109/19/47 91/34/47 118/38/47
f 110/29/48 117/35/48 91/34/48
f 110/29/49 107/16/49 117/35/49
f 107/16/50 95/46/50 117/35/50
f 115/28/51 116/32/51 94/43/51
f 115/28/52 106/27/52 116/32/52
f 106/27/53 89/23/53 116/32/53
f 113/25/54 114/31/54 93/40/54
f 113/25/55 105/24/55 114/31/55
f 105/24/56 88/20/56 114/31/56
f 111/22/57 112/60/57 92/55/57
f 111/22/58 103/21/58 112/60/58
f 103/21/59 87/61/59 112/60/59
f 109/19/60 110/29/60 91/34/60
f 109/19/61 99/18/61 110/29/61
f 99/18/62 86/4/62 110/29/62
f 107/16/63 108/33/63 95/46/63
f 107/16/64 100/6/64 108/33/64
f 100/6/65 90/26/65 108/33/65
f 101/15/66 106/27/66 90/26/66
f 101/15/67 104/14/67 106/27/67
f 104/14/68 89/23/68 106/27/68
f 104/12/69 105/24/69 89/23/69
f 104/12/70 102/11/70 105/24/70
f 102/11/71 88/20/71 105/24/71
f 102/9/72 103/21/72 88/20/72
f 102/9/73 97/8/73 103/21/73
f 97/8/74 87/61/74 103/21/74
f 100/6/75 101/62/75 90/26/75
f 100/6/76 98/5/76 101/62/76
f 98/5/77 85/63/77 101/62/77
f 97/3/78 99/18/78 87/17/78
f 97/3/79 98/2/79 99/18/79
f 98/2/80 86/4/80 99/18/80
f 136/64/81 133/65/81 137/66/81
f 137/66/82 133/67/82 138/68/82
f 138/68/83 133/69/83 139/70/83
f 139/70/84 133/71/84 140/72/84
f 140/72/85 133/73/85 141/74/85
f 141/74/86 133/75/86 142/76/86
f 150/77/87 129/78/87 128/79/87 151/80/87
f 142/76/88 133/81/88 143/82/88
f 143/82/89 133/83/89 136/84/89
f 127/85/90 143/82/90 136/84/90 144/86/90
f 128/79/91 142/76/91 143/82/91 127/85/91
f 129/78/92 141/74/92 142/76/92 128/79/92
f 130/87/93 140/72/93 141/74/93 129/78/93
f 132/88/94 139/70/94 140/72/94 130/87/94
f 134/89/95 138/68/95 139/70/95 132/88/95
f 135/90/96 137/66/96 138/68/96 134/89/96
f 144/91/97 136/64/97 137/66/97 135/90/97
f 149/92/98 130/87/98 129/78/98 150/77/98
f 148/93/99 132/88/99 130/87/99 149/92/99
f 147/94/100 134/89/100 132/88/100 148/93/100
f 146/95/101 135/90/101 134/89/101 147/94/101
f 145/96/102 144/91/102 135/90/102 146/95/102
f 151/80/103 128/79/103 127/85/103 152/97/103
f 152/97/104 127/85/104 144/86/104 145/98/104
f 131/99/105 145/100/105 146/101/105
f 131/102/105 146/101/105 147/103/105
f 131/104/105 147/103/105 148/105/105
f 131/106/105 148/105/105 149/107/105
f 131/108/105 149/107/105 150/109/105
f 131/110/105 150/109/105 151/111/105
f 131/112/105 151/111/105 152/113/105
f 131/114/105 152/113/105 145/100/105
