# Blender 4.0.2
# www.blender.org
mtllib Chocolate_B.mtl
o Chocolate_B
v -0.031847 0.016782 0.001042
v -0.031847 0.016782 -0.001042
v 0.031847 0.016782 0.001042
v 0.031847 0.016782 -0.001042
v -0.031847 0.078065 0.004657
v -0.031847 0.078065 -0.003817
v 0.031847 0.078065 -0.003817
v 0.031847 0.078065 0.004657
v -0.031847 0.030871 -0.003817
v 0.031847 0.030871 -0.003817
v 0.031847 0.030871 0.004657
v -0.031847 0.030871 0.004657
v -0.031847 0.016782 -0.000000
v 0.031847 0.016782 -0.000000
v 0.031847 0.078065 0.000000
v -0.031847 0.078065 0.000000
v -0.031847 0.030871 0.000000
v 0.031847 0.030871 0.000000
v -0.031847 0.000000 0.000000
v -0.031847 0.000000 0.001042
v 0.031847 0.000000 -0.001042
v -0.031847 0.000000 -0.001042
v 0.031847 0.000000 0.000000
v 0.031847 0.000000 0.001042
v -0.030401 0.078065 0.003541
v -0.030401 0.140906 0.003541
v -0.030401 0.140906 0.000000
v -0.030401 0.140906 -0.002701
v 0.030401 0.140906 -0.002701
v 0.030401 0.140906 0.000000
v 0.030401 0.140906 0.003541
v -0.030401 0.078065 -0.002701
v 0.030401 0.078065 -0.002701
v 0.030401 0.078065 0.003541
v 0.030401 0.078065 0.000000
v -0.030401 0.078065 0.000000
v 0.000000 0.016782 -0.001042
v 0.000000 0.016782 0.001042
v 0.000000 0.078065 0.004657
v 0.000000 0.078065 -0.003817
v 0.000000 0.030871 -0.003817
v 0.000000 0.030871 0.004657
v 0.000000 0.000000 -0.001042
v 0.000000 0.000000 0.001042
v 0.000000 0.000000 0.000000
v 0.000000 0.140906 -0.002701
v 0.000000 0.140906 0.003541
v 0.000000 0.078065 0.003541
v 0.000000 0.078065 -0.002701
v 0.000000 0.140906 0.000000
v -0.030401 0.109486 0.003541
v -0.030401 0.109486 -0.002701
v 0.030401 0.109486 -0.002701
v 0.030401 0.109486 0.003541
v 0.030401 0.109486 0.000000
v -0.030401 0.109486 0.000000
v 0.000000 0.109486 0.003541
v 0.000000 0.109486 -0.002701
v -0.001367 0.110853 0.003541
v -0.001367 0.139538 0.003541
v -0.029034 0.139538 0.003541
v -0.029034 0.110853 0.003541
v 0.029034 0.110853 0.003541
v 0.029034 0.139538 0.003541
v 0.001367 0.139538 0.003541
v 0.001367 0.110853 0.003541
v 0.029034 0.079433 0.003541
v 0.029034 0.108118 0.003541
v 0.001367 0.108118 0.003541
v 0.001367 0.079433 0.003541
v -0.001367 0.079433 0.003541
v -0.001367 0.108118 0.003541
v -0.029034 0.108118 0.003541
v -0.029034 0.079433 0.003541
v -0.003007 0.112492 0.005997
v -0.003007 0.137899 0.005997
v -0.027395 0.137899 0.005997
v -0.027395 0.112492 0.005997
v 0.027395 0.112492 0.005997
v 0.027395 0.137899 0.005997
v 0.003007 0.137899 0.005997
v 0.003007 0.112492 0.005997
v 0.027395 0.081072 0.005997
v 0.027395 0.106479 0.005997
v 0.003007 0.106479 0.005997
v 0.003007 0.081072 0.005997
v -0.003007 0.081072 0.005997
v -0.003007 0.106479 0.005997
v -0.027395 0.106479 0.005997
v -0.027395 0.081072 0.005997
v -0.031847 0.069735 0.004657
v -0.031847 0.069735 -0.003817
v 0.031847 0.069735 -0.003817
v 0.031847 0.069735 0.004657
v -0.031847 0.069735 0.000000
v 0.031847 0.069735 0.000000
v 0.000000 0.069735 -0.003817
v 0.000000 0.069735 0.004657
v -0.031847 0.065380 -0.003817
v 0.031847 0.065380 -0.003817
v 0.031847 0.065380 0.004657
v -0.031847 0.065380 0.000000
v 0.031847 0.065380 0.000000
v 0.000000 0.065380 -0.003817
v 0.000000 0.065380 0.004657
v -0.031847 0.065380 0.004657
v -0.031847 0.040852 -0.003817
v 0.031847 0.040852 -0.003817
v 0.031847 0.040852 0.004657
v -0.031847 0.040852 0.000000
v 0.031847 0.040852 0.000000
v 0.000000 0.040852 -0.003817
v 0.000000 0.040852 0.004657
v -0.031847 0.040852 0.004657
v -0.031847 0.046060 0.004657
v -0.031847 0.046060 -0.003817
v 0.031847 0.046060 -0.003817
v 0.031847 0.046060 0.004657
v -0.031847 0.046060 0.000000
v 0.031847 0.046060 0.000000
v 0.000000 0.046060 -0.003817
v 0.000000 0.046060 0.004657
vn -0.0000 1.0000 -0.0000
vn -0.0000 -0.0000 1.0000
vn 1.0000 -0.0000 -0.0000
vn -0.0000 -0.0000 -1.0000
vn -1.0000 -0.0000 -0.0000
vn -0.0000 -0.1932 -0.9812
vn -0.0000 -0.2485 0.9686
vn -0.0000 -1.0000 -0.0000
vn 0.8317 -0.0000 0.5552
vn -0.0000 0.8317 0.5552
vn -0.8317 -0.0000 0.5552
vn -0.0000 -0.8317 0.5552
vt 0.212891 0.969758
vt 0.212891 0.959005
vt 0.212891 0.926747
vt 0.212891 0.915995
vt 0.202138 0.969758
vt 0.202138 0.980511
vt 0.212891 0.905242
vt 0.212891 0.894489
vt 0.211316 0.969758
vt 0.212891 0.980511
vt 0.211316 0.980511
vt 0.211316 0.948253
vt 0.212891 0.948253
vt 0.211316 0.959005
vt 0.211316 0.926747
vt 0.212891 0.937500
vt 0.211316 0.937500
vt 0.211316 0.905242
vt 0.211316 0.915995
vt 0.202138 0.905242
vt 0.203970 0.905242
vt 0.203970 0.915995
vt 0.202138 0.915995
vt 0.202138 0.926747
vt 0.203970 0.926747
vt 0.203970 0.937500
vt 0.202138 0.937500
vt 0.202138 0.948253
vt 0.203970 0.948253
vt 0.203970 0.959005
vt 0.202138 0.959005
vt 0.203970 0.969758
vt 0.203970 0.980511
vt 0.202138 0.894489
vt 0.203970 0.894489
vt 0.211316 0.894489
vt 0.191385 0.948253
vt 0.191385 0.959005
vt 0.191385 0.937500
vt 0.446783 0.645476
vt 0.452159 0.645476
vt 0.452159 0.656229
vt 0.446783 0.656229
vt 0.446783 0.666982
vt 0.452159 0.666982
vt 0.452159 0.677734
vt 0.446783 0.677734
vt 0.446783 0.688487
vt 0.452159 0.688487
vt 0.452159 0.699240
vt 0.446783 0.699240
vt 0.447297 0.711056
vt 0.451644 0.711056
vt 0.451644 0.719682
vt 0.447297 0.719682
vt 0.462912 0.688487
vt 0.473664 0.688487
vt 0.473664 0.699240
vt 0.462912 0.699240
vt 0.462912 0.677734
vt 0.473664 0.677734
vt 0.446783 0.634723
vt 0.452159 0.634723
vt 0.447297 0.700303
vt 0.451644 0.700303
vt 0.451644 0.708929
vt 0.447297 0.708929
vt 0.180633 0.937500
vt 0.180633 0.948253
vt 0.180633 0.959005
vt 0.441406 0.656229
vt 0.441406 0.666982
vt 0.441921 0.700303
vt 0.446268 0.700303
vt 0.446268 0.708929
vt 0.441921 0.708929
vt 0.441406 0.634723
vt 0.441406 0.645476
vt 0.441406 0.677734
vt 0.441406 0.688487
vt 0.441921 0.711056
vt 0.446268 0.711056
vt 0.446268 0.719682
vt 0.441921 0.719682
vt 0.441406 0.699240
vt 0.446783 0.709993
vt 0.452159 0.709993
vt 0.451925 0.710476
vt 0.447017 0.710476
vt 0.452159 0.720745
vt 0.451925 0.720262
vt 0.446783 0.720745
vt 0.447017 0.720262
vt 0.451925 0.699723
vt 0.447017 0.699723
vt 0.451925 0.709509
vt 0.447017 0.709509
vt 0.446549 0.699723
vt 0.441640 0.699723
vt 0.446549 0.709509
vt 0.441406 0.709993
vt 0.441640 0.709509
vt 0.446549 0.710476
vt 0.441640 0.710476
vt 0.446549 0.720262
vt 0.441406 0.720745
vt 0.441640 0.720262
vt 0.083540 0.964865
vt 0.084363 0.964865
vt 0.084363 0.975618
vt 0.083540 0.975618
vt 0.083540 0.921854
vt 0.084363 0.921854
vt 0.084363 0.932607
vt 0.083540 0.932607
vt 0.083540 0.943359
vt 0.084363 0.943359
vt 0.084363 0.954112
vt 0.083540 0.954112
vt 0.083540 0.900348
vt 0.084363 0.900348
vt 0.084363 0.911101
vt 0.083540 0.911101
vt 0.084363 0.986370
vt 0.083540 0.986370
vt 0.206841 0.969758
vt 0.210493 0.969758
vt 0.210493 0.980511
vt 0.206841 0.980511
vt 0.206841 0.948253
vt 0.210493 0.948253
vt 0.210493 0.959005
vt 0.206841 0.959005
vt 0.206841 0.926747
vt 0.210493 0.926747
vt 0.210493 0.937500
vt 0.206841 0.937500
vt 0.206841 0.905242
vt 0.210493 0.905242
vt 0.210493 0.915995
vt 0.206841 0.915995
vt 0.206841 0.894489
vt 0.210493 0.894489
vt 0.205857 0.959005
vt 0.205857 0.969758
vt 0.205857 0.915995
vt 0.205857 0.926747
vt 0.205857 0.937500
vt 0.205857 0.948253
vt 0.205857 0.894489
vt 0.205857 0.905242
vt 0.205857 0.980511
vt 0.078904 0.964865
vt 0.079888 0.964865
vt 0.079888 0.975618
vt 0.078904 0.975618
vt 0.078904 0.921854
vt 0.079888 0.921854
vt 0.079888 0.932607
vt 0.078904 0.932607
vt 0.078904 0.943359
vt 0.079888 0.943359
vt 0.079888 0.954112
vt 0.078904 0.954112
vt 0.078904 0.900348
vt 0.079888 0.900348
vt 0.079888 0.911101
vt 0.078904 0.911101
vt 0.079888 0.986370
vt 0.078904 0.986370
s 0
usemtl Food_Color_mat
f 39/1/1 8/2/1 34/2/1 48/1/1
f 40/3/1 6/4/1 32/4/1 49/3/1
f 38/5/2 1/6/2 20/6/2 44/5/2
f 16/7/1 5/8/1 25/8/1 36/7/1
f 98/9/2 39/1/2 5/10/2 91/11/2
f 96/12/3 15/13/3 8/2/3 94/14/3
f 97/15/4 40/3/4 7/16/4 93/17/4
f 95/18/5 16/7/5 6/4/5 92/19/5
f 13/20/5 17/21/5 9/22/5 2/23/5
f 37/24/6 41/25/6 10/26/6 4/27/6
f 14/28/3 18/29/3 11/30/3 3/31/3
f 38/5/7 42/32/7 12/33/7 1/6/7
f 4/27/3 10/26/3 18/29/3 14/28/3
f 1/34/5 12/35/5 17/21/5 13/20/5
f 91/36/5 5/8/5 16/7/5 95/18/5
f 93/17/3 7/16/3 15/13/3 96/12/3
f 8/2/1 15/13/1 35/13/1 34/2/1
f 4/27/3 14/28/3 23/28/3 21/27/3
f 6/4/1 16/7/1 36/7/1 32/4/1
f 15/13/1 7/16/1 33/16/1 35/13/1
f 45/37/8 23/28/8 24/31/8 44/38/8
f 43/39/8 21/27/8 23/28/8 45/37/8
f 14/28/3 3/31/3 24/31/3 23/28/3
f 13/20/5 2/23/5 22/23/5 19/20/5
f 37/24/4 4/27/4 21/27/4 43/24/4
f 1/34/5 13/20/5 19/20/5 20/34/5
f 56/40/5 27/41/5 28/42/5 52/43/5
f 58/44/4 46/45/4 29/46/4 53/47/4
f 55/48/3 30/49/3 31/50/3 54/51/3
f 75/52/2 76/53/2 77/54/2 78/55/2
f 50/56/1 27/57/1 26/58/1 47/59/1
f 46/60/1 28/61/1 27/57/1 50/56/1
f 53/47/3 29/46/3 30/49/3 55/48/3
f 51/62/5 26/63/5 27/41/5 56/40/5
f 29/46/1 46/60/1 50/56/1 30/49/1
f 30/49/1 50/56/1 47/59/1 31/50/1
f 79/64/2 80/65/2 81/66/2 82/67/2
f 52/43/4 28/42/4 46/45/4 58/44/4
f 2/23/4 37/24/4 43/24/4 22/23/4
f 22/68/8 43/39/8 45/37/8 19/69/8
f 19/69/8 45/37/8 44/38/8 20/70/8
f 3/31/7 11/30/7 42/32/7 38/5/7
f 2/23/6 9/22/6 41/25/6 37/24/6
f 92/19/4 6/4/4 40/3/4 97/15/4
f 94/14/2 8/2/2 39/1/2 98/9/2
f 3/31/2 38/5/2 44/5/2 24/31/2
f 7/16/1 40/3/1 49/3/1 33/16/1
f 5/10/1 39/1/1 48/1/1 25/10/1
f 32/71/4 52/43/4 58/44/4 49/72/4
f 83/73/2 84/74/2 85/75/2 86/76/2
f 25/77/5 51/62/5 56/40/5 36/78/5
f 33/79/3 53/47/3 55/48/3 35/80/3
f 87/81/2 88/82/2 89/83/2 90/84/2
f 35/80/3 55/48/3 54/51/3 34/85/3
f 49/72/4 58/44/4 53/47/4 33/79/4
f 36/78/5 56/40/5 52/43/5 32/71/5
f 57/86/2 47/87/2 60/88/2 59/89/2
f 47/87/2 26/90/2 61/91/2 60/88/2
f 26/90/2 51/92/2 62/93/2 61/91/2
f 51/92/2 57/86/2 59/89/2 62/93/2
f 54/51/2 31/50/2 64/94/2 63/95/2
f 31/50/2 47/87/2 65/96/2 64/94/2
f 47/87/2 57/86/2 66/97/2 65/96/2
f 57/86/2 54/51/2 63/95/2 66/97/2
f 34/85/2 54/51/2 68/98/2 67/99/2
f 54/51/2 57/86/2 69/100/2 68/98/2
f 57/86/2 48/101/2 70/102/2 69/100/2
f 48/101/2 34/85/2 67/99/2 70/102/2
f 48/101/2 57/86/2 72/103/2 71/104/2
f 57/86/2 51/92/2 73/105/2 72/103/2
f 51/92/2 25/106/2 74/107/2 73/105/2
f 25/106/2 48/101/2 71/104/2 74/107/2
f 59/89/9 60/88/9 76/53/9 75/52/9
f 60/88/10 61/91/10 77/54/10 76/53/10
f 61/91/11 62/93/11 78/55/11 77/54/11
f 62/93/12 59/89/12 75/52/12 78/55/12
f 63/95/9 64/94/9 80/65/9 79/64/9
f 64/94/10 65/96/10 81/66/10 80/65/10
f 65/96/11 66/97/11 82/67/11 81/66/11
f 66/97/12 63/95/12 79/64/12 82/67/12
f 67/99/9 68/98/9 84/74/9 83/73/9
f 68/98/10 69/100/10 85/75/10 84/74/10
f 69/100/11 70/102/11 86/76/11 85/75/11
f 70/102/12 67/99/12 83/73/12 86/76/12
f 71/104/9 72/103/9 88/82/9 87/81/9
f 72/103/10 73/105/10 89/83/10 88/82/10
f 73/105/11 74/107/11 90/84/11 89/83/11
f 74/107/12 71/104/12 87/81/12 90/84/12
f 101/108/2 94/109/2 98/110/2 105/111/2
f 99/112/4 92/113/4 97/114/4 104/115/4
f 100/116/3 93/117/3 96/118/3 103/119/3
f 106/120/5 91/121/5 95/122/5 102/123/5
f 102/123/5 95/122/5 92/113/5 99/112/5
f 104/115/4 97/114/4 93/117/4 100/116/4
f 103/119/3 96/118/3 94/109/3 101/108/3
f 105/111/2 98/110/2 91/124/2 106/125/2
f 122/126/2 105/127/2 106/128/2 115/129/2
f 120/130/3 103/131/3 101/132/3 118/133/3
f 121/134/4 104/135/4 100/136/4 117/137/4
f 119/138/5 102/139/5 99/140/5 116/141/5
f 115/142/5 106/143/5 102/139/5 119/138/5
f 117/137/3 100/136/3 103/131/3 120/130/3
f 116/141/4 99/140/4 104/135/4 121/134/4
f 118/133/2 101/132/2 105/127/2 122/126/2
f 11/30/2 109/144/2 113/145/2 42/32/2
f 9/22/4 107/146/4 112/147/4 41/25/4
f 10/26/3 108/148/3 111/149/3 18/29/3
f 12/35/5 114/150/5 110/151/5 17/21/5
f 17/21/5 110/151/5 107/146/5 9/22/5
f 41/25/4 112/147/4 108/148/4 10/26/4
f 18/29/3 111/149/3 109/144/3 11/30/3
f 42/32/2 113/145/2 114/152/2 12/33/2
f 109/153/2 118/154/2 122/155/2 113/156/2
f 107/157/4 116/158/4 121/159/4 112/160/4
f 108/161/3 117/162/3 120/163/3 111/164/3
f 114/165/5 115/166/5 119/167/5 110/168/5
f 110/168/5 119/167/5 116/158/5 107/157/5
f 112/160/4 121/159/4 117/162/4 108/161/4
f 111/164/3 120/163/3 118/154/3 109/153/3
f 113/156/2 122/155/2 115/169/2 114/170/2
