# Blender 4.0.2
# www.blender.org
mtllib Chocolate_A.mtl
o Chocolate_A
v -0.015046 0.020926 0.006826
v -0.015046 0.057042 0.006826
v -0.015046 0.020926 -0.006826
v -0.015046 0.057042 -0.006826
v 0.015046 0.020926 0.006826
v 0.015046 0.067357 0.006826
v 0.015046 0.020926 -0.006826
v 0.015046 0.067357 -0.006826
v -0.015046 0.013623 -0.005351
v -0.015046 0.013623 0.005351
v 0.015046 0.013623 -0.005351
v 0.015046 0.013623 0.005351
v -0.015755 0.005325 -0.000325
v -0.015755 0.005325 0.000325
v 0.015755 0.005325 -0.000325
v 0.015755 0.005325 0.000325
v -0.015755 0.000000 -0.000325
v -0.015755 0.000000 0.000325
v 0.015755 0.000000 -0.000325
v 0.015755 0.000000 0.000325
v 0.000000 0.020926 -0.006826
v 0.000000 0.060806 -0.006826
v 0.000000 0.020926 0.006826
v 0.000000 0.060806 0.006826
v 0.000000 0.013623 -0.005351
v 0.000000 0.013623 0.005351
v 0.000000 0.005325 -0.000325
v 0.000000 0.005325 0.000325
v 0.000000 0.000000 -0.000325
v 0.000000 0.000000 0.000325
v -0.011224 0.047761 0.006425
v -0.014108 0.046711 0.003541
v -0.013263 0.047019 0.005581
v -0.014108 0.046711 -0.003541
v -0.011224 0.047761 -0.006425
v -0.013263 0.047019 -0.005581
v 0.014237 0.057026 0.003541
v 0.011353 0.055976 0.006425
v 0.013392 0.056718 0.005581
v 0.011353 0.055976 -0.006425
v 0.014237 0.057026 -0.003541
v 0.013392 0.056718 -0.005581
v -0.014108 0.082386 0.003541
v -0.011224 0.082386 0.006425
v -0.011224 0.085270 0.003541
v -0.013263 0.082386 0.005581
v -0.012889 0.084051 0.005207
v -0.011224 0.084426 0.005581
v -0.013263 0.084426 0.003541
v -0.014108 0.082386 -0.003541
v -0.011224 0.085270 -0.003541
v -0.011224 0.082386 -0.006425
v -0.013263 0.084426 -0.003541
v -0.012889 0.084051 -0.005207
v -0.011224 0.084426 -0.005581
v -0.013263 0.082386 -0.005581
v 0.011353 0.082386 -0.006425
v 0.011353 0.085270 -0.003541
v 0.014237 0.082386 -0.003541
v 0.011353 0.084426 -0.005581
v 0.013018 0.084051 -0.005207
v 0.013392 0.084426 -0.003541
v 0.013392 0.082386 -0.005581
v 0.014237 0.082386 0.003541
v 0.011353 0.085270 0.003541
v 0.011353 0.082386 0.006425
v 0.013392 0.084426 0.003541
v 0.013018 0.084051 0.005207
v 0.011353 0.084426 0.005581
v 0.013392 0.082386 0.005581
v -0.014265 0.057286 0.006472
v -0.014265 0.057286 -0.006472
v 0.014265 0.067065 0.006472
v 0.014265 0.067065 -0.006472
v 0.000000 0.060854 -0.006472
v 0.000000 0.060854 0.006472
v -0.012300 0.052894 0.005581
v -0.012300 0.052894 -0.005581
v 0.012300 0.061327 0.005581
v 0.012300 0.061327 -0.005581
v 0.000000 0.055971 -0.005581
v 0.000000 0.055971 0.005581
vn -1.0000 -0.0000 -0.0000
vn -0.0000 -0.0000 -1.0000
vn 1.0000 -0.0000 -0.0000
vn -0.0000 -0.0000 1.0000
vn -0.0000 -0.1980 0.9802
vn -0.0000 -0.5181 0.8553
vn -0.0000 -0.1980 -0.9802
vn -0.0000 -0.5181 -0.8553
vn 0.9964 0.0852 -0.0000
vn -0.9964 0.0852 -0.0000
vn -0.0000 -1.0000 -0.0000
vn -0.0000 1.0000 -0.0000
vn -0.8881 0.3251 0.3251
vn -0.3251 0.3251 0.8881
vn -0.3251 0.8881 0.3251
vn -0.8881 0.3251 -0.3251
vn -0.3251 0.8881 -0.3251
vn -0.3251 0.3251 -0.8881
vn 0.3251 0.3251 -0.8881
vn 0.3251 0.8881 -0.3251
vn 0.8881 0.3251 -0.3251
vn 0.8881 0.3251 0.3251
vn 0.3251 0.8881 0.3251
vn 0.3251 0.3251 0.8881
vn -0.3827 0.9239 -0.0000
vn -0.9239 0.3827 -0.0000
vn -0.0000 0.9239 -0.3827
vn -0.0000 0.3827 -0.9239
vn 0.3827 0.9239 -0.0000
vn 0.9239 0.3827 -0.0000
vn -0.0000 0.9239 0.3827
vn -0.0000 0.3827 0.9239
vn 0.3827 -0.0000 -0.9239
vn 0.9239 -0.0000 -0.3827
vn 0.3827 -0.0000 0.9239
vn 0.9239 -0.0000 0.3827
vn -0.3827 -0.0000 0.9239
vn -0.9239 -0.0000 0.3827
vn -0.3827 -0.0000 -0.9239
vn -0.9239 -0.0000 -0.3827
vn -0.2406 0.9618 -0.1309
vn -0.2978 0.9546 -0.0000
vn -0.2406 0.9618 0.1309
vn -0.3961 0.9098 -0.1238
vn -0.3500 0.9367 -0.0000
vn -0.3961 0.9098 0.1238
vn -0.0779 0.1790 -0.9808
vn -0.0449 0.1794 -0.9828
vn -0.0779 0.1790 0.9808
vn -0.0449 0.1794 0.9828
vn -0.9461 0.3239 -0.0000
vn 0.9128 0.4083 -0.0000
vt 0.921294 0.269534
vt 0.939326 0.269534
vt 0.939326 0.287566
vt 0.921294 0.287566
vt 0.921294 0.296582
vt 0.939326 0.296582
vt 0.939326 0.305598
vt 0.921294 0.305598
vt 0.939326 0.323630
vt 0.921294 0.323630
vt 0.921294 0.332646
vt 0.939326 0.332646
vt 0.939326 0.341662
vt 0.921294 0.341662
vt 0.912278 0.305598
vt 0.912278 0.323630
vt 0.455173 0.670621
vt 0.455988 0.668559
vt 0.456653 0.668843
vt 0.455744 0.670883
vt 0.461301 0.662985
vt 0.461301 0.705950
vt 0.456113 0.671195
vt 0.457208 0.668871
vt 0.424657 0.693216
vt 0.456789 0.661307
vt 0.455573 0.668182
vt 0.454709 0.670572
vt 0.452814 0.704563
vt 0.432194 0.698539
vt 0.454983 0.670978
vt 0.455597 0.671282
vt 0.903262 0.305598
vt 0.903262 0.323630
vt 0.456828 0.668425
vt 0.457039 0.668586
vt 0.456887 0.668706
vt 0.456723 0.668633
vt 0.456890 0.668898
vt 0.456162 0.668138
vt 0.456089 0.668358
vt 0.455920 0.668295
vt 0.455898 0.668101
vt 0.455782 0.668429
vt 0.454968 0.670566
vt 0.454960 0.670729
vt 0.454820 0.670819
vt 0.455096 0.670804
vt 0.455658 0.671066
vt 0.455812 0.671119
vt 0.455844 0.671293
vt 0.455929 0.670995
vt 0.428564 0.695772
vt 0.457031 0.705092
vt 0.460916 0.662501
vt 0.460459 0.662132
vt 0.457387 0.661237
vt 0.457954 0.661296
s 0
usemtl Food_Color_mat
f 1/1/1 2/2/1 4/3/1 3/4/1
f 21/5/2 22/6/2 8/7/2 7/8/2
f 7/8/3 8/7/3 6/9/3 5/10/3
f 23/11/4 24/12/4 2/13/4 1/14/4
f 23/11/5 1/14/5 10/14/5 26/11/5
f 26/11/6 10/14/6 14/14/6 28/11/6
f 21/5/7 7/8/7 11/8/7 25/5/7
f 1/1/1 3/4/1 9/4/1 10/1/1
f 7/8/3 5/10/3 12/10/3 11/8/3
f 28/11/4 14/14/4 18/14/4 30/11/4
f 25/5/8 11/8/8 15/8/8 27/5/8
f 11/8/9 12/10/9 16/10/9 15/8/9
f 10/1/10 9/4/10 13/4/10 14/1/10
f 29/15/11 19/8/11 20/10/11 30/16/11
f 27/5/2 15/8/2 19/8/2 29/5/2
f 15/8/3 16/10/3 20/10/3 19/8/3
f 14/1/1 13/4/1 17/4/1 18/1/1
f 58/17/12 51/18/12 45/19/12 65/20/12
f 31/21/4 38/22/4 66/23/4 44/24/4
f 40/25/2 35/26/2 52/27/2 57/28/2
f 37/29/3 41/30/3 59/31/3 64/32/3
f 13/4/2 27/5/2 29/5/2 17/4/2
f 17/33/11 29/15/11 30/16/11 18/34/11
f 9/4/8 25/5/8 27/5/8 13/4/8
f 16/10/4 28/11/4 30/11/4 20/10/4
f 3/4/7 21/5/7 25/5/7 9/4/7
f 12/10/6 26/11/6 28/11/6 16/10/6
f 5/10/5 23/11/5 26/11/5 12/10/5
f 5/10/4 6/9/4 24/12/4 23/11/4
f 3/4/2 4/3/2 22/6/2 21/5/2
f 43/35/13 46/36/13 47/37/13 49/38/13
f 44/24/14 48/39/14 47/37/14 46/36/14
f 45/19/15 49/38/15 47/37/15 48/39/15
f 50/40/16 53/41/16 54/42/16 56/43/16
f 51/18/17 55/44/17 54/42/17 53/41/17
f 52/27/18 56/43/18 54/42/18 55/44/18
f 57/28/19 60/45/19 61/46/19 63/47/19
f 58/17/20 62/48/20 61/46/20 60/45/20
f 59/31/21 63/47/21 61/46/21 62/48/21
f 64/32/22 67/49/22 68/50/22 70/51/22
f 65/20/23 69/52/23 68/50/23 67/49/23
f 66/23/24 70/51/24 68/50/24 69/52/24
f 45/19/25 51/18/25 53/41/25 49/38/25
f 49/38/26 53/41/26 50/40/26 43/35/26
f 51/18/27 58/17/27 60/45/27 55/44/27
f 55/44/28 60/45/28 57/28/28 52/27/28
f 58/17/29 65/20/29 67/49/29 62/48/29
f 62/48/30 67/49/30 64/32/30 59/31/30
f 65/20/31 45/19/31 48/39/31 69/52/31
f 69/52/32 48/39/32 44/24/32 66/23/32
f 40/25/33 57/28/33 63/47/33 42/53/33
f 42/53/34 63/47/34 59/31/34 41/30/34
f 66/23/35 38/22/35 39/54/35 70/51/35
f 70/51/36 39/54/36 37/29/36 64/32/36
f 31/21/37 44/24/37 46/36/37 33/55/37
f 33/55/38 46/36/38 43/35/38 32/56/38
f 52/27/39 35/26/39 36/57/39 56/43/39
f 56/43/40 36/57/40 34/58/40 50/40/40
f 34/58/1 32/56/1 43/35/1 50/40/1
f 22/6/41 4/3/41 72/3/41 75/6/41
f 4/3/42 2/2/42 71/2/42 72/3/42
f 2/13/43 24/12/43 76/12/43 71/13/43
f 8/7/44 22/6/44 75/6/44 74/7/44
f 6/9/45 8/7/45 74/7/45 73/9/45
f 24/12/46 6/9/46 73/9/46 76/12/46
f 76/12/47 73/9/47 79/9/47 82/12/47
f 71/13/48 76/12/48 82/12/48 77/13/48
f 74/7/49 75/6/49 81/6/49 80/7/49
f 75/6/50 72/3/50 78/3/50 81/6/50
f 73/9/51 74/7/51 80/7/51 79/9/51
f 72/3/52 71/2/52 77/2/52 78/3/52
