# Blender 4.0.2
# www.blender.org
mtllib Ice-Cream_Magnum_B.mtl
o Ice-Cream_Magnum_B
v -0.005630 0.002588 0.001287
v -0.003516 0.038682 0.001287
v -0.005630 0.002588 -0.001287
v -0.003516 0.038682 -0.001287
v 0.005630 0.002588 0.001287
v 0.003516 0.038682 0.001287
v 0.005630 0.002588 -0.001287
v 0.003516 0.038682 -0.001287
v -0.000000 0.000261 -0.001287
v -0.000000 0.038682 -0.001287
v -0.000000 0.000261 0.001287
v -0.000000 0.038682 0.001287
v 0.003221 0.000845 0.001287
v 0.003221 0.000845 -0.001287
v -0.003221 0.000845 -0.001287
v -0.003221 0.000845 0.001287
v -0.005354 0.020635 0.001287
v -0.005354 0.020635 -0.001287
v 0.005354 0.020635 -0.001287
v 0.005354 0.020635 0.001287
v -0.000000 0.020635 0.001287
v -0.000000 0.020635 -0.001287
v -0.004463 0.029658 0.001287
v -0.004463 0.029658 -0.001287
v 0.004463 0.029658 -0.001287
v 0.004463 0.029658 0.001287
v -0.000000 0.029658 0.001287
v -0.000000 0.029658 -0.001287
v -0.006120 0.011611 -0.001343
v 0.006120 0.011611 -0.001343
v 0.006120 0.011611 0.001343
v -0.000000 0.011611 0.001343
v -0.000000 0.011611 -0.001343
v -0.006120 0.011611 0.001343
v -0.006309 0.004669 -0.001287
v 0.006309 0.004669 -0.001287
v 0.006309 0.004669 0.001287
v -0.000000 0.002879 0.001287
v -0.000000 0.002879 -0.001287
v -0.006309 0.004669 0.001287
v -0.005832 0.002432 -0.000000
v -0.003693 0.038876 -0.000000
v 0.005832 0.002432 -0.000000
v 0.003693 0.038876 -0.000000
v -0.000000 0.000000 -0.000000
v 0.003318 0.000604 -0.000000
v -0.003318 0.000604 -0.000000
v 0.005617 0.020658 -0.000000
v -0.005617 0.020658 -0.000000
v 0.004725 0.029685 -0.000000
v -0.004725 0.029685 -0.000000
v -0.006384 0.011632 -0.000000
v 0.006384 0.011632 -0.000000
v 0.006560 0.004635 -0.000000
v -0.006560 0.004635 -0.000000
v -0.022011 0.062299 0.006522
v 0.020500 0.062299 0.008222
v -0.019831 0.102100 0.006522
v 0.018339 0.102100 0.008222
v -0.000000 0.038842 0.008222
v 0.000000 0.062299 0.008222
v 0.000000 0.102100 0.008222
v 0.000000 0.127042 0.008222
v 0.007385 0.039490 0.008222
v -0.006389 0.125945 0.008222
v -0.007385 0.039490 0.008222
v 0.000000 0.083046 0.008222
v -0.012758 0.122833 0.008222
v -0.020412 0.051624 0.008222
v -0.014098 0.041241 0.008222
v -0.017240 0.043663 0.008222
v -0.019662 0.082985 0.008222
v 0.014098 0.041241 0.008222
v 0.020412 0.051624 0.008222
v 0.017240 0.043663 0.008222
v 0.019662 0.082985 0.008222
v -0.017478 0.113276 0.008222
v -0.015803 0.119355 0.008222
v 0.017530 0.112238 0.008222
v -0.021071 0.046685 -0.000000
v 0.021071 0.046685 -0.000000
v -0.013966 0.124972 -0.000000
v -0.015016 0.039032 -0.000000
v 0.015016 0.039032 -0.000000
v 0.019346 0.113697 -0.000000
v -0.019346 0.114242 -0.000000
v -0.017503 0.120931 -0.000000
v 0.022360 0.050927 -0.000000
v 0.018867 0.042101 -0.000000
v -0.022360 0.050927 -0.000000
v -0.018867 0.042101 -0.000000
v -0.006993 0.128379 -0.000000
v -0.007745 0.037136 -0.000000
v -0.021592 0.083113 -0.000000
v 0.021592 0.083113 -0.000000
v 0.007745 0.037136 -0.000000
v 0.000000 0.036456 -0.000000
v 0.000000 0.129580 -0.000000
v 0.020253 0.102100 -0.000000
v -0.020253 0.102100 -0.000000
v 0.021142 0.083048 0.006522
v 0.022011 0.062299 0.006522
v -0.021142 0.083048 0.006522
v -0.018339 0.102100 0.008222
v -0.007584 0.038025 0.006522
v -0.000000 0.037359 0.006522
v 0.000000 0.128542 0.006522
v 0.007584 0.038025 0.006522
v -0.006847 0.127366 0.006522
v -0.013675 0.124031 0.006522
v -0.014703 0.039882 0.006522
v -0.018474 0.042887 0.006522
v -0.021894 0.051528 0.006522
v 0.018474 0.042887 0.006522
v 0.014703 0.039882 0.006522
v 0.021894 0.051528 0.006522
v -0.020500 0.062299 0.008222
v -0.018943 0.113524 0.006522
v -0.017139 0.120074 0.006522
v 0.018943 0.113524 0.006522
v 0.019831 0.102100 0.006522
v 0.020632 0.047374 0.006522
v 0.022479 0.062299 -0.000000
v 0.019244 0.047810 0.008222
v -0.020632 0.047374 0.006522
v -0.022479 0.062299 -0.000000
v -0.019244 0.047810 0.008222
v 0.006155 0.117404 0.006856
v 0.017773 0.114952 -0.000000
v 0.017300 0.114680 0.005946
v 0.016592 0.114271 0.006856
v 0.013868 0.113002 0.006856
v 0.009608 0.114439 0.006856
v 0.012424 0.112615 0.006856
v 0.003000 0.127681 -0.000000
v 0.003000 0.126740 0.005469
v 0.003000 0.125911 0.006409
v 0.003000 0.124130 0.006856
v 0.018443 0.114338 0.006522
v 0.018961 0.114637 -0.000000
v 0.017120 0.113574 0.008222
v 0.012424 0.111613 0.008222
v 0.013868 0.112000 0.008222
v 0.005320 0.117057 0.008222
v 0.009290 0.113601 0.008222
v 0.002015 0.129065 -0.000000
v 0.002015 0.128027 0.006076
v 0.002015 0.126527 0.007775
v 0.002004 0.123435 0.008222
v 0.006155 0.117404 -0.000000
v 0.003000 0.124130 -0.000000
v 0.012424 0.112615 -0.000000
v 0.013868 0.113002 -0.000000
v 0.009608 0.114439 -0.000000
v 0.003000 0.125911 -0.000000
v -0.007012 0.121313 0.008222
v -0.022011 0.062299 -0.006522
v 0.020500 0.062299 -0.008222
v -0.019831 0.102100 -0.006522
v 0.018339 0.102100 -0.008222
v -0.000000 0.038842 -0.008222
v 0.000000 0.062299 -0.008222
v 0.000000 0.102100 -0.008222
v 0.000000 0.127042 -0.008222
v 0.007385 0.039490 -0.008222
v -0.006389 0.125945 -0.008222
v -0.007385 0.039490 -0.008222
v 0.000000 0.083046 -0.008222
v -0.018339 0.102100 -0.008222
v -0.012758 0.122833 -0.008222
v -0.020412 0.051624 -0.008222
v -0.014098 0.041241 -0.008222
v -0.017240 0.043663 -0.008222
v -0.019662 0.082985 -0.008222
v 0.014098 0.041241 -0.008222
v 0.020412 0.051624 -0.008222
v 0.017240 0.043663 -0.008222
v 0.019662 0.082985 -0.008222
v -0.017478 0.113276 -0.008222
v -0.015803 0.119355 -0.008222
v 0.017530 0.112238 -0.008222
v 0.021142 0.083048 -0.006522
v 0.022011 0.062299 -0.006522
v -0.021142 0.083048 -0.006522
v -0.007584 0.038025 -0.006522
v -0.000000 0.037359 -0.006522
v 0.000000 0.128542 -0.006522
v 0.007584 0.038025 -0.006522
v -0.006847 0.127366 -0.006522
v -0.013675 0.124031 -0.006522
v -0.014703 0.039882 -0.006522
v -0.018474 0.042887 -0.006522
v -0.021894 0.051528 -0.006522
v 0.018474 0.042887 -0.006522
v 0.014703 0.039882 -0.006522
v 0.021894 0.051528 -0.006522
v -0.020500 0.062299 -0.008222
v -0.018943 0.113524 -0.006522
v -0.017139 0.120074 -0.006522
v 0.018943 0.113524 -0.006522
v 0.019831 0.102100 -0.006522
v 0.020632 0.047374 -0.006522
v 0.019244 0.047810 -0.008222
v -0.020632 0.047374 -0.006522
v -0.019244 0.047810 -0.008222
v 0.006155 0.117404 -0.006856
v 0.017300 0.114680 -0.005946
v 0.016592 0.114271 -0.006856
v 0.013868 0.113002 -0.006856
v 0.009608 0.114439 -0.006856
v 0.012424 0.112615 -0.006856
v 0.003000 0.126740 -0.005469
v 0.003000 0.125911 -0.006409
v 0.003000 0.124130 -0.006856
v 0.018443 0.114338 -0.006522
v 0.017120 0.113574 -0.008222
v 0.012424 0.111613 -0.008222
v 0.013868 0.112000 -0.008222
v 0.005320 0.117057 -0.008222
v 0.009290 0.113601 -0.008222
v 0.002015 0.128027 -0.006076
v 0.002015 0.126527 -0.007775
v 0.002004 0.123435 -0.008222
v -0.007012 0.121313 -0.008222
v -0.007887 0.114817 -0.008222
vn -0.9787 0.1064 -0.1758
vn -0.0000 -0.0000 -1.0000
vn 0.9787 0.1064 0.1758
vn -0.0000 -0.0000 1.0000
vn 0.5766 -0.7947 0.1898
vn -0.1753 -0.9650 0.1948
vn 0.1753 -0.9650 0.1948
vn -0.5766 -0.7947 0.1898
vn -0.0000 0.0062 -1.0000
vn -0.0000 0.0062 1.0000
vn 0.9769 0.0836 0.1966
vn -0.9769 0.0836 -0.1966
vn 0.9749 0.0963 0.2005
vn -0.9749 0.0963 -0.2005
vn -0.9811 0.0250 -0.1917
vn 0.0010 -0.0071 -1.0000
vn 0.9811 0.0250 0.1917
vn -0.0010 -0.0071 1.0000
vn 0.0010 -0.0071 1.0000
vn -0.0010 -0.0071 -1.0000
vn 0.9333 -0.3066 0.1871
vn -0.9333 -0.3066 -0.1871
vn -0.9333 -0.3066 0.1871
vn 0.9333 -0.3066 -0.1871
vn 0.9811 0.0250 -0.1917
vn -0.9811 0.0250 0.1917
vn -0.9749 0.0963 0.2005
vn 0.9749 0.0963 -0.2005
vn -0.9769 0.0836 0.1966
vn 0.9769 0.0836 -0.1966
vn -0.5766 -0.7947 -0.1898
vn 0.1753 -0.9650 -0.1948
vn -0.1753 -0.9650 -0.1948
vn 0.5766 -0.7947 -0.1898
vn 0.9787 0.1064 -0.1758
vn -0.9787 0.1064 0.1758
vn 0.9974 -0.0106 0.0719
vn -0.9953 0.0693 0.0669
vn -0.0866 -0.9868 0.1366
vn 0.0866 -0.9868 0.1366
vn -0.2500 -0.9585 0.1368
vn -0.1672 0.9737 0.1549
vn 0.2500 -0.9585 0.1368
vn -0.4342 0.8886 0.1477
vn -0.6179 -0.7753 0.1306
vn -0.9525 -0.2895 0.0947
vn -0.9949 0.0758 0.0671
vn -0.9966 0.0421 0.0704
vn 0.8961 -0.4310 0.1059
vn 0.9953 0.0693 0.0669
vn 0.9949 0.0776 0.0640
vn -0.9974 -0.0106 0.0719
vn 0.6179 -0.7753 0.1306
vn 0.9525 -0.2895 0.0947
vn -0.7462 0.6533 0.1276
vn -0.9603 0.2645 0.0885
vn 0.7500 0.0309 0.6607
vn -0.7513 0.0518 0.6579
vn -0.0660 -0.7519 0.6560
vn 0.3204 0.7103 0.6268
vn 0.0660 -0.7519 0.6560
vn -0.1277 0.7437 0.6563
vn -0.3313 0.6779 0.6563
vn -0.4756 -0.6059 0.6377
vn -0.7276 -0.2220 0.6491
vn 0.4756 -0.6059 0.6377
vn 0.6866 -0.3309 0.6474
vn -0.7504 -0.0071 0.6610
vn 0.7504 -0.0071 0.6610
vn -0.7274 0.2004 0.6563
vn -0.7511 0.0581 0.6576
vn -0.7500 0.0309 0.6607
vn 0.7513 0.0518 0.6579
vn 0.7478 0.0589 0.6613
vn -0.1910 -0.7323 0.6537
vn 0.1910 -0.7323 0.6537
vn -0.5677 0.4970 0.6563
vn 0.7276 -0.2220 0.6491
vn -0.8961 -0.4310 0.1059
vn -0.6866 -0.3309 0.6474
vn 0.9966 0.0421 0.0704
vn 0.9054 0.4246 -0.0000
vn 0.6590 0.2789 0.6986
vn 0.2609 0.9525 0.1569
vn 1.0000 0.0001 -0.0000
vn 0.6515 0.7586 -0.0000
vn 0.8901 0.4489 0.0791
vn 0.2561 0.9645 0.0646
vn 0.0468 0.8970 0.4395
vn -0.2111 0.7884 0.5779
vn -0.3612 0.7591 0.5415
vn 0.5600 0.6473 0.5171
vn 0.4566 0.7126 0.5327
vn 0.8113 0.5762 0.0988
vn 0.8111 0.4386 0.3870
vn 0.8035 0.1055 0.5858
vn 0.7105 0.3509 0.6100
vn -0.2587 0.9660 -0.0000
vn -0.4420 0.8970 0.0065
vn 0.5437 0.8393 -0.0000
vn 0.0374 0.0208 0.9991
vn 0.9974 -0.0106 -0.0719
vn -0.9953 0.0693 -0.0669
vn -0.0866 -0.9868 -0.1366
vn 0.0866 -0.9868 -0.1366
vn -0.2500 -0.9585 -0.1368
vn -0.1672 0.9737 -0.1549
vn 0.2500 -0.9585 -0.1368
vn -0.4342 0.8886 -0.1477
vn -0.6179 -0.7753 -0.1306
vn -0.9525 -0.2895 -0.0947
vn -0.9949 0.0758 -0.0671
vn -0.9966 0.0421 -0.0704
vn 0.8961 -0.4310 -0.1059
vn 0.9953 0.0693 -0.0669
vn 0.9949 0.0776 -0.0640
vn -0.9974 -0.0106 -0.0719
vn 0.6179 -0.7753 -0.1306
vn 0.9525 -0.2895 -0.0947
vn -0.7462 0.6533 -0.1276
vn -0.9603 0.2645 -0.0885
vn 0.7500 0.0309 -0.6607
vn -0.7513 0.0518 -0.6579
vn -0.0660 -0.7519 -0.6560
vn 0.3204 0.7103 -0.6268
vn 0.0660 -0.7519 -0.6559
vn -0.1277 0.7437 -0.6563
vn -0.3313 0.6779 -0.6563
vn -0.4756 -0.6059 -0.6377
vn -0.7276 -0.2220 -0.6491
vn 0.4756 -0.6059 -0.6377
vn 0.6866 -0.3309 -0.6474
vn -0.7504 -0.0071 -0.6610
vn 0.7504 -0.0071 -0.6610
vn -0.7274 0.2004 -0.6563
vn -0.7511 0.0581 -0.6576
vn -0.7500 0.0309 -0.6607
vn 0.7513 0.0518 -0.6579
vn 0.7478 0.0589 -0.6613
vn -0.1910 -0.7323 -0.6537
vn 0.1910 -0.7323 -0.6537
vn -0.5677 0.4970 -0.6563
vn 0.7276 -0.2220 -0.6491
vn -0.8961 -0.4310 -0.1059
vn -0.6866 -0.3309 -0.6474
vn 0.9966 0.0421 -0.0704
vn 0.6590 0.2789 -0.6986
vn 0.2609 0.9525 -0.1569
vn 0.8901 0.4489 -0.0791
vn 0.2561 0.9645 -0.0646
vn 0.0468 0.8970 -0.4395
vn -0.2111 0.7884 -0.5779
vn -0.3612 0.7591 -0.5415
vn 0.5600 0.6473 -0.5171
vn 0.4566 0.7126 -0.5327
vn 0.8113 0.5762 -0.0988
vn 0.8111 0.4386 -0.3870
vn 0.8035 0.1055 -0.5858
vn 0.7105 0.3509 -0.6100
vn -0.4420 0.8970 -0.0065
vn 0.0374 0.0208 -0.9991
vt 0.064348 0.680103
vt 0.065852 0.680103
vt 0.065852 0.683110
vt 0.064348 0.683110
vt 0.064348 0.687621
vt 0.065852 0.687621
vt 0.065852 0.689124
vt 0.064348 0.689124
vt 0.064348 0.692131
vt 0.065852 0.692131
vt 0.065852 0.695138
vt 0.064348 0.695138
vt 0.064348 0.699648
vt 0.065852 0.699648
vt 0.065852 0.701151
vt 0.064348 0.701151
vt 0.058334 0.692131
vt 0.059838 0.692131
vt 0.059838 0.695138
vt 0.058334 0.695138
vt 0.055328 0.692131
vt 0.056831 0.692131
vt 0.056831 0.695138
vt 0.055328 0.695138
vt 0.065852 0.696641
vt 0.064348 0.696641
vt 0.065852 0.684614
vt 0.064348 0.684614
vt 0.053824 0.692131
vt 0.053824 0.695138
vt 0.061341 0.683110
vt 0.062845 0.683110
vt 0.062845 0.684614
vt 0.061341 0.684614
vt 0.061341 0.695138
vt 0.062845 0.695138
vt 0.062845 0.696641
vt 0.061341 0.696641
vt 0.061341 0.699648
vt 0.062845 0.699648
vt 0.062845 0.701151
vt 0.061341 0.701151
vt 0.061341 0.692131
vt 0.062845 0.692131
vt 0.061341 0.687621
vt 0.062845 0.687621
vt 0.062845 0.689124
vt 0.061341 0.689124
vt 0.061341 0.680103
vt 0.062845 0.680103
vt 0.060185 0.680103
vt 0.060185 0.683110
vt 0.060185 0.687621
vt 0.060185 0.689124
vt 0.060185 0.692131
vt 0.060185 0.695138
vt 0.060185 0.699648
vt 0.060185 0.701151
vt 0.060185 0.696641
vt 0.060185 0.684614
vt 0.059838 0.698144
vt 0.059838 0.699648
vt 0.059838 0.683110
vt 0.059838 0.684614
vt 0.059838 0.686117
vt 0.059838 0.687621
vt 0.059838 0.696641
vt 0.060185 0.686117
vt 0.060185 0.698144
vt 0.059838 0.701151
vt 0.059838 0.689124
vt 0.059838 0.680103
vt 0.059838 0.677097
vt 0.060185 0.677097
vt 0.061341 0.677097
vt 0.062845 0.677097
vt 0.064348 0.677097
vt 0.053824 0.689124
vt 0.055328 0.689124
vt 0.056831 0.689124
vt 0.058334 0.689124
vt 0.065852 0.677097
vt 0.436901 0.727712
vt 0.459307 0.727973
vt 0.459307 0.730119
vt 0.445725 0.730158
vt 0.442340 0.729765
vt 0.438955 0.729372
vt 0.436901 0.710215
vt 0.438955 0.708555
vt 0.442340 0.708162
vt 0.445725 0.707768
vt 0.459502 0.707808
vt 0.459307 0.709953
vt 0.444434 0.694937
vt 0.459307 0.694937
vt 0.459307 0.706950
vt 0.444434 0.706950
vt 0.459326 0.707826
vt 0.459307 0.729199
vt 0.459307 0.727411
vt 0.459307 0.727320
vt 0.459307 0.718963
vt 0.459307 0.724674
vt 0.459307 0.646883
vt 0.459307 0.634870
vt 0.436825 0.713091
vt 0.436733 0.718963
vt 0.459307 0.712957
vt 0.417260 0.694937
vt 0.423267 0.694937
vt 0.423267 0.706950
vt 0.417260 0.706950
vt 0.459307 0.712146
vt 0.459307 0.713646
vt 0.429273 0.694937
vt 0.429273 0.706950
vt 0.459307 0.724731
vt 0.414257 0.694937
vt 0.414257 0.706950
vt 0.459307 0.724970
vt 0.436825 0.724835
vt 0.459307 0.707905
vt 0.459307 0.708081
vt 0.459307 0.710192
vt 0.471320 0.694937
vt 0.477327 0.694937
vt 0.477327 0.706950
vt 0.471320 0.706950
vt 0.459307 0.710961
vt 0.459307 0.730102
vt 0.459307 0.730031
vt 0.432277 0.694937
vt 0.432277 0.706950
vt 0.480330 0.694937
vt 0.480330 0.706950
vt 0.411253 0.706950
vt 0.411253 0.694937
vt 0.439857 0.646883
vt 0.439857 0.634870
vt 0.444434 0.634870
vt 0.444434 0.646883
vt 0.435280 0.706950
vt 0.435280 0.694937
vt 0.439857 0.694937
vt 0.439857 0.706950
vt 0.483334 0.694937
vt 0.483334 0.706950
vt 0.459307 0.730977
vt 0.435280 0.724970
vt 0.435280 0.718963
vt 0.459307 0.716282
vt 0.459307 0.716332
vt 0.435280 0.712957
vt 0.437905 0.730087
vt 0.435280 0.727973
vt 0.444434 0.730977
vt 0.441169 0.730532
vt 0.435280 0.709953
vt 0.437905 0.707839
vt 0.441169 0.707395
vt 0.459307 0.730021
vt 0.459307 0.730124
vt 0.459307 0.707895
vt 0.435280 0.646883
vt 0.435280 0.634870
vt 0.044055 0.675234
vt 0.046914 0.675234
vt 0.046811 0.678232
vt 0.044055 0.678232
vt 0.459307 0.707186
vt 0.468688 0.706950
vt 0.468743 0.694937
vt 0.044055 0.678920
vt 0.046757 0.678920
vt 0.046703 0.679604
vt 0.044418 0.679240
vt 0.044055 0.673746
vt 0.046926 0.673746
vt 0.046703 0.669822
vt 0.044407 0.670033
vt 0.044184 0.669524
vt 0.046703 0.669293
vt 0.044055 0.670349
vt 0.043528 0.670114
vt 0.044055 0.671564
vt 0.044055 0.672208
vt 0.043528 0.672208
vt 0.043528 0.671564
vt 0.043528 0.675233
vt 0.043542 0.673593
vt 0.046703 0.680138
vt 0.044184 0.679737
vt 0.043528 0.679158
vt 0.043528 0.678232
vt 0.046874 0.671564
vt 0.046938 0.672208
vt 0.459307 0.716380
vt 0.459307 0.727602
vt 0.459307 0.724812
s 0
usemtl Food_Color_mat
f 51/1/1 42/2/1 4/3/1 24/4/1
f 28/5/2 10/6/2 8/7/2 25/8/2
f 50/9/3 44/10/3 6/11/3 26/12/3
f 27/13/4 12/14/4 2/15/4 23/16/4
f 46/17/5 43/18/5 5/19/5 13/20/5
f 47/21/6 45/22/6 11/23/6 16/24/6
f 26/12/4 6/11/4 12/25/4 27/26/4
f 45/22/7 46/17/7 13/20/7 11/23/7
f 24/4/2 4/3/2 10/27/2 28/28/2
f 41/29/8 47/21/8 16/24/8 1/30/8
f 29/31/9 18/32/9 22/33/9 33/34/9
f 31/35/10 20/36/10 21/37/10 32/38/10
f 32/39/10 21/40/10 17/41/10 34/42/10
f 53/43/11 48/44/11 20/36/11 31/35/11
f 33/45/9 22/46/9 19/47/9 30/48/9
f 52/49/12 49/50/12 18/32/12 29/31/12
f 18/32/2 24/4/2 28/28/2 22/33/2
f 20/36/4 26/12/4 27/26/4 21/37/4
f 21/40/4 27/13/4 23/16/4 17/41/4
f 48/44/13 50/9/13 26/12/13 20/36/13
f 22/46/2 28/5/2 25/8/2 19/47/2
f 49/50/14 51/1/14 24/4/14 18/32/14
f 55/51/15 52/49/15 29/31/15 35/52/15
f 39/53/16 33/45/16 30/48/16 36/54/16
f 54/55/17 53/43/17 31/35/17 37/56/17
f 38/57/18 32/39/18 34/42/18 40/58/18
f 37/56/19 31/35/19 32/38/19 38/59/19
f 35/52/20 29/31/20 33/34/20 39/60/20
f 11/61/4 38/57/4 16/62/4
f 3/63/2 35/52/2 39/60/2 15/64/2
f 9/65/2 39/53/2 14/66/2
f 5/19/4 37/56/4 38/59/4 13/67/4
f 15/64/2 39/68/2 9/65/2
f 13/67/4 38/69/4 11/61/4
f 16/62/4 38/57/4 40/58/4 1/70/4
f 43/18/21 54/55/21 37/56/21 5/19/21
f 14/66/2 39/53/2 36/54/2 7/71/2
f 41/72/22 55/51/22 35/52/22 3/63/22
f 1/73/23 40/74/23 55/51/23 41/72/23
f 7/71/24 36/54/24 54/55/24 43/18/24
f 36/54/25 30/48/25 53/43/25 54/55/25
f 40/74/26 34/75/26 52/49/26 55/51/26
f 17/76/27 23/77/27 51/1/27 49/50/27
f 19/47/28 25/8/28 50/9/28 48/44/28
f 34/75/29 17/76/29 49/50/29 52/49/29
f 30/48/30 19/47/30 48/44/30 53/43/30
f 3/78/31 15/79/31 47/21/31 41/29/31
f 9/80/32 14/81/32 46/17/32 45/22/32
f 15/79/33 9/80/33 45/22/33 47/21/33
f 14/81/34 7/71/34 43/18/34 46/17/34
f 25/8/35 8/7/35 44/10/35 50/9/35
f 23/77/36 2/82/36 42/2/36 51/1/36
f 70/83/4 61/84/4 117/85/4 69/86/4 127/87/4 71/88/4
f 73/89/4 75/90/4 124/91/4 74/92/4 57/93/4 61/94/4
f 88/95/37 123/96/37 102/97/37 116/98/37
f 67/94/4 76/99/4 59/94/4
f 78/100/4 156/101/4 68/102/4
f 156/103/4 63/103/4 65/104/4
f 94/105/38 103/106/38 58/106/38 100/105/38
f 64/107/4 61/103/4 60/108/4
f 73/89/4 61/109/4 64/107/4
f 93/110/39 97/111/39 106/112/39 105/113/39
f 62/109/4 145/114/4 144/115/4
f 97/111/40 96/116/40 108/117/40 106/112/40
f 156/118/4 65/104/4 68/102/4
f 83/119/41 93/110/41 105/113/41 111/120/41
f 60/108/4 61/121/4 66/122/4
f 79/123/4 141/124/4 143/125/4
f 98/126/42 92/127/42 109/128/42 107/129/42
f 62/109/4 59/94/4 143/125/4 142/130/4
f 67/94/4 59/94/4 62/109/4
f 72/131/4 67/84/4 62/84/4 104/132/4
f 96/116/43 84/133/43 115/134/43 108/117/43
f 117/85/4 61/84/4 67/84/4 72/131/4
f 66/122/4 61/84/4 70/83/4
f 92/127/44 82/135/44 110/136/44 109/128/44
f 83/119/45 111/120/45 112/137/45 91/138/45
f 80/139/46 125/140/46 113/141/46 90/142/46
f 61/94/4 57/93/4 76/99/4 67/94/4
f 100/105/47 58/106/47 118/106/47 86/105/47
f 126/105/48 56/106/48 103/106/48 94/105/48
f 114/143/49 89/144/49 81/145/49 122/146/49
f 101/97/50 95/96/50 99/96/50 121/97/50
f 121/97/51 99/96/51 85/96/51 120/97/51
f 113/141/52 56/106/52 126/105/52 90/142/52
f 115/134/53 84/133/53 89/144/53 114/143/53
f 122/146/54 81/145/54 88/95/54 116/98/54
f 110/136/55 82/135/55 87/147/55 119/148/55
f 119/106/56 87/105/56 86/105/56 118/106/56
f 76/99/57 57/93/57 102/97/57 101/97/57
f 72/131/58 104/132/58 58/149/58 103/149/58
f 60/108/59 66/122/59 105/150/59 106/151/59
f 63/103/60 148/152/60 147/153/60 107/103/60
f 64/107/61 60/108/61 106/151/61 108/154/61
f 65/104/62 63/103/62 107/103/62 109/121/62
f 68/102/63 65/104/63 109/121/63 110/84/63
f 70/83/64 71/88/64 112/155/64 111/156/64
f 127/87/65 69/86/65 113/157/65 125/158/65
f 75/90/66 73/89/66 115/159/66 114/160/66
f 124/91/67 75/90/67 114/160/67 122/161/67
f 69/86/68 117/85/68 56/149/68 113/157/68
f 57/93/69 74/92/69 116/98/69 102/97/69
f 77/162/70 78/100/70 119/163/70 118/149/70
f 104/132/71 77/162/71 118/149/71 58/149/71
f 117/85/72 72/131/72 103/149/72 56/149/72
f 59/164/73 76/99/73 101/97/73 121/97/73
f 79/123/74 59/164/74 121/97/74 120/97/74
f 66/122/75 70/83/75 111/156/75 105/150/75
f 73/89/76 64/107/76 108/154/76 115/159/76
f 78/100/77 68/102/77 110/84/77 119/163/77
f 74/92/78 124/91/78 122/161/78 116/98/78
f 91/165/79 112/166/79 125/140/79 80/139/79
f 71/88/80 127/87/80 125/158/80 112/155/80
f 102/97/81 123/96/81 95/96/81 101/97/81
f 128/167/82 150/168/82 151/169/82 138/170/82
f 139/171/83 141/124/83 79/123/83 120/97/83
f 147/172/84 146/173/84 98/126/84 107/129/84
f 137/174/85 155/175/85 135/176/85 136/177/85
f 133/178/86 154/179/86 150/168/86 128/167/86
f 140/96/87 139/97/87 120/97/87 85/96/87
f 129/180/88 130/181/88 139/182/88 140/183/88
f 130/181/89 131/184/89 141/185/89 139/182/89
f 132/186/90 134/187/90 142/188/90 143/189/90
f 131/184/91 132/186/91 143/189/91 141/185/91
f 133/178/92 128/167/92 144/190/92 145/191/92
f 134/187/93 133/178/93 145/191/93 142/188/93
f 136/177/94 135/176/94 146/192/94 147/193/94
f 137/174/95 136/177/95 147/193/95 148/194/95
f 138/170/96 137/174/96 148/194/96 149/195/96
f 128/167/97 138/170/97 149/195/97 144/190/97
f 153/196/98 152/197/98 134/187/98 132/186/98
f 129/180/99 153/196/99 132/186/99 131/184/99 130/181/99
f 134/187/100 152/197/100 154/179/100 133/178/100
f 138/170/85 151/169/85 155/175/85 137/174/85
f 145/114/4 62/109/4 142/130/4
f 77/103/4 62/103/4 144/115/4
f 63/103/101 156/103/101 149/198/101 148/152/101
f 77/199/4 156/101/4 78/100/4
f 156/103/4 77/103/4 144/115/4 149/198/4
f 104/132/4 62/84/4 77/162/4
f 172/83/2 173/88/2 205/87/2 171/86/2 197/85/2 162/84/2
f 175/89/2 162/94/2 158/93/2 176/92/2 203/91/2 177/90/2
f 88/95/102 196/98/102 183/97/102 123/96/102
f 168/94/2 160/164/2 178/99/2
f 180/100/2 170/102/2 224/101/2
f 224/118/2 166/104/2 164/103/2
f 94/105/103 100/105/103 159/106/103 184/106/103
f 165/107/2 161/108/2 162/109/2
f 175/89/2 165/107/2 162/94/2
f 93/110/104 185/113/104 186/112/104 97/111/104
f 163/103/2 219/115/2 220/114/2
f 97/111/105 186/112/105 188/117/105 96/116/105
f 168/84/2 169/84/2 163/121/2
f 224/101/2 170/102/2 166/104/2
f 83/119/106 191/120/106 185/113/106 93/110/106
f 161/108/2 167/122/2 162/103/2
f 218/125/2 216/124/2 181/123/2
f 98/126/107 187/129/107 189/128/107 92/127/107
f 163/109/2 217/130/2 218/125/2 160/94/2
f 168/109/2 163/109/2 160/94/2
f 174/131/2 169/84/2 168/84/2
f 96/116/108 188/117/108 195/134/108 84/133/108
f 197/85/2 174/131/2 168/84/2 162/84/2
f 167/122/2 172/83/2 162/121/2
f 92/127/109 189/128/109 190/136/109 82/135/109
f 83/119/110 91/138/110 192/137/110 191/120/110
f 80/139/111 90/142/111 193/141/111 204/140/111
f 162/94/2 168/94/2 178/99/2 158/93/2
f 100/105/112 86/105/112 198/106/112 159/106/112
f 126/105/113 94/105/113 184/106/113 157/106/113
f 194/143/114 202/146/114 81/145/114 89/144/114
f 182/97/115 201/97/115 99/96/115 95/96/115
f 201/97/116 200/97/116 85/96/116 99/96/116
f 193/141/117 90/142/117 126/105/117 157/106/117
f 195/134/118 194/143/118 89/144/118 84/133/118
f 202/146/119 196/98/119 88/95/119 81/145/119
f 190/136/120 199/148/120 87/147/120 82/135/120
f 199/106/121 198/106/121 86/105/121 87/105/121
f 178/99/122 182/97/122 183/97/122 158/93/122
f 174/131/123 184/149/123 159/149/123 169/132/123
f 161/108/124 186/151/124 185/150/124 167/122/124
f 164/103/125 187/103/125 221/153/125 222/152/125
f 165/107/126 188/154/126 186/151/126 161/108/126
f 166/104/127 189/121/127 187/103/127 164/103/127
f 170/102/128 190/84/128 189/121/128 166/104/128
f 172/83/129 191/156/129 192/155/129 173/88/129
f 205/87/130 204/158/130 193/157/130 171/86/130
f 177/90/131 194/160/131 195/159/131 175/89/131
f 203/91/132 202/161/132 194/160/132 177/90/132
f 171/86/133 193/157/133 157/149/133 197/85/133
f 158/93/134 183/97/134 196/98/134 176/92/134
f 179/162/135 198/149/135 199/163/135 180/100/135
f 169/132/136 159/149/136 198/149/136 179/162/136
f 197/85/137 157/149/137 184/149/137 174/131/137
f 160/164/138 201/97/138 182/97/138 178/99/138
f 181/123/139 200/97/139 201/97/139 160/164/139
f 167/122/140 185/150/140 191/156/140 172/83/140
f 175/89/141 195/159/141 188/154/141 165/107/141
f 180/100/142 199/163/142 190/84/142 170/102/142
f 176/92/143 196/98/143 202/161/143 203/91/143
f 91/165/144 80/139/144 204/140/144 192/166/144
f 173/88/145 192/155/145 204/158/145 205/87/145
f 183/97/146 182/97/146 95/96/146 123/96/146
f 206/167/82 214/170/82 151/169/82 150/168/82
f 215/171/147 200/97/147 181/123/147 216/124/147
f 221/172/148 187/129/148 98/126/148 146/173/148
f 213/174/85 212/177/85 135/176/85 155/175/85
f 210/178/86 206/167/86 150/168/86 154/179/86
f 140/96/149 85/96/149 200/97/149 215/97/149
f 129/180/150 140/183/150 215/182/150 207/181/150
f 207/181/151 215/182/151 216/185/151 208/184/151
f 209/186/152 218/189/152 217/188/152 211/187/152
f 208/184/153 216/185/153 218/189/153 209/186/153
f 210/178/154 220/191/154 219/190/154 206/167/154
f 211/187/155 217/188/155 220/191/155 210/178/155
f 212/177/156 221/193/156 146/192/156 135/176/156
f 213/174/157 222/194/157 221/193/157 212/177/157
f 214/170/158 223/195/158 222/194/158 213/174/158
f 206/167/159 219/190/159 223/195/159 214/170/159
f 153/196/98 209/186/98 211/187/98 152/197/98
f 129/180/160 207/181/160 208/184/160 209/186/160 153/196/160
f 211/187/100 210/178/100 154/179/100 152/197/100
f 214/170/85 213/174/85 155/175/85 151/169/85
f 220/114/2 217/130/2 163/109/2
f 225/103/2 219/115/2 163/103/2
f 164/103/161 222/152/161 223/198/161 224/103/161
f 179/162/2 180/100/2 224/101/2 225/199/2
f 169/84/2 225/200/2 163/121/2
f 224/103/2 223/198/2 219/115/2 225/103/2
f 169/132/2 179/162/2 225/199/2
f 59/94/4 79/123/4 143/125/4
f 160/94/2 218/125/2 181/123/2
