# Blender 4.0.2
# www.blender.org
mtllib Ketchup_sauce.mtl
o Ketchup_sauce
v 0.000000 0.026812 -0.020399
v 0.007806 0.026812 -0.018846
v 0.014424 0.026812 -0.014424
v 0.018846 0.026812 -0.007806
v 0.020399 0.026812 0.000000
v 0.018846 0.026812 0.007806
v 0.014424 0.026812 0.014424
v 0.007806 0.026812 0.018846
v 0.000000 0.026812 0.020399
v -0.007806 0.026812 0.018846
v -0.014424 0.026812 0.014424
v -0.018846 0.026812 0.007806
v -0.020399 0.026812 0.000000
v -0.018846 0.026812 -0.007806
v -0.014424 0.026812 -0.014424
v -0.007806 0.026812 -0.018846
v 0.000000 0.000000 -0.016228
v 0.000000 0.007716 -0.024095
v 0.000000 0.001034 -0.020161
v 0.000000 0.003858 -0.023041
v 0.006210 0.000000 -0.014993
v 0.009221 0.007716 -0.022261
v 0.007715 0.001034 -0.018627
v 0.008817 0.003858 -0.021287
v 0.011475 0.000000 -0.011475
v 0.017038 0.007716 -0.017038
v 0.014256 0.001034 -0.014256
v 0.016292 0.003858 -0.016292
v 0.014993 0.000000 -0.006210
v 0.022261 0.007716 -0.009221
v 0.018627 0.001034 -0.007715
v 0.021287 0.003858 -0.008817
v 0.016228 0.000000 0.000000
v 0.024095 0.007716 0.000000
v 0.020161 0.001034 0.000000
v 0.023041 0.003858 0.000000
v 0.014993 0.000000 0.006210
v 0.022261 0.007716 0.009221
v 0.018627 0.001034 0.007715
v 0.021287 0.003858 0.008817
v 0.011475 0.000000 0.011475
v 0.017038 0.007716 0.017038
v 0.014256 0.001034 0.014256
v 0.016292 0.003858 0.016292
v 0.006210 0.000000 0.014993
v 0.009221 0.007716 0.022261
v 0.007715 0.001034 0.018627
v 0.008817 0.003858 0.021287
v -0.000000 0.000000 0.016228
v 0.000000 0.007716 0.024095
v -0.000000 0.001034 0.020161
v -0.000000 0.003858 0.023041
v -0.006210 0.000000 0.014993
v -0.009221 0.007716 0.022261
v -0.007715 0.001034 0.018627
v -0.008817 0.003858 0.021287
v -0.011475 0.000000 0.011475
v -0.017038 0.007716 0.017038
v -0.014256 0.001034 0.014256
v -0.016292 0.003858 0.016292
v -0.014993 0.000000 0.006210
v -0.022261 0.007716 0.009221
v -0.018627 0.001034 0.007715
v -0.021287 0.003858 0.008817
v -0.016228 0.000000 -0.000000
v -0.024095 0.007716 0.000000
v -0.020161 0.001034 -0.000000
v -0.023041 0.003858 -0.000000
v -0.014993 0.000000 -0.006210
v -0.022261 0.007716 -0.009221
v -0.018627 0.001034 -0.007715
v -0.021287 0.003858 -0.008817
v -0.011475 0.000000 -0.011475
v -0.017038 0.007716 -0.017038
v -0.014256 0.001034 -0.014256
v -0.016292 0.003858 -0.016292
v -0.006210 0.000000 -0.014993
v -0.009221 0.007716 -0.022261
v -0.007715 0.001034 -0.018627
v -0.008817 0.003858 -0.021287
v 0.009221 0.026812 -0.022261
v 0.000000 0.026812 -0.024095
v 0.017038 0.026812 -0.017038
v 0.022261 0.026812 -0.009221
v 0.024095 0.026812 0.000000
v 0.022261 0.026812 0.009221
v 0.017038 0.026812 0.017038
v 0.009221 0.026812 0.022261
v 0.000000 0.026812 0.024095
v -0.009221 0.026812 0.022261
v -0.017038 0.026812 0.017038
v -0.022261 0.026812 0.009221
v -0.024095 0.026812 0.000000
v -0.022261 0.026812 -0.009221
v -0.017038 0.026812 -0.017038
v -0.009221 0.026812 -0.022261
v 0.007806 0.008477 -0.018846
v -0.000000 0.008477 -0.020399
v 0.014424 0.008477 -0.014424
v 0.018846 0.008477 -0.007806
v 0.020399 0.008477 0.000000
v 0.018846 0.008477 0.007806
v 0.014424 0.008477 0.014424
v 0.007806 0.008477 0.018846
v -0.000000 0.008477 0.020399
v -0.007806 0.008477 0.018846
v -0.014424 0.008477 0.014424
v -0.018846 0.008477 0.007806
v -0.020399 0.008477 0.000000
v -0.018846 0.008477 -0.007806
v -0.014424 0.008477 -0.014424
v -0.007806 0.008477 -0.018846
v -0.000000 0.028920 0.000000
v 0.007806 0.021650 -0.018846
v -0.000000 0.021650 -0.020399
v 0.014424 0.021650 -0.014424
v 0.018846 0.021650 -0.007806
v 0.020399 0.021650 0.000000
v 0.018846 0.021650 0.007806
v 0.014424 0.021650 0.014424
v 0.007806 0.021650 0.018846
v -0.000000 0.021650 0.020399
v -0.007806 0.021650 0.018846
v -0.014424 0.021650 0.014424
v -0.018846 0.021650 0.007806
v -0.020399 0.021650 0.000000
v -0.018846 0.021650 -0.007806
v -0.014424 0.021650 -0.014424
v -0.007806 0.021650 -0.018846
v 0.005042 0.027875 -0.012173
v 0.006997 0.025752 -0.016892
v -0.000000 0.027875 -0.013176
v -0.000000 0.025752 -0.018284
v 0.009317 0.027875 -0.009317
v 0.012928 0.025752 -0.012928
v 0.012173 0.027875 -0.005042
v 0.016892 0.025752 -0.006997
v 0.013176 0.027875 0.000000
v 0.018284 0.025752 0.000000
v 0.012173 0.027875 0.005042
v 0.016892 0.025752 0.006997
v 0.009317 0.027875 0.009317
v 0.012928 0.025752 0.012928
v 0.005042 0.027875 0.012173
v 0.006997 0.025752 0.016892
v -0.000000 0.027875 0.013176
v -0.000000 0.025752 0.018284
v -0.005042 0.027875 0.012173
v -0.006997 0.025752 0.016892
v -0.009317 0.027875 0.009317
v -0.012928 0.025752 0.012928
v -0.012173 0.027875 0.005042
v -0.016892 0.025752 0.006997
v -0.013176 0.027875 0.000000
v -0.018284 0.025752 0.000000
v -0.012173 0.027875 -0.005042
v -0.016892 0.025752 -0.006997
v -0.009317 0.027875 -0.009317
v -0.012928 0.025752 -0.012928
v -0.005042 0.027875 -0.012173
v -0.006997 0.025752 -0.016892
vn -0.1951 -0.0000 -0.9808
vn 0.8315 -0.0000 -0.5556
vn 0.9808 -0.0000 -0.1951
vn 0.9808 -0.0000 0.1951
vn 0.8315 -0.0000 0.5556
vn 0.5556 -0.0000 0.8315
vn 0.1951 -0.0000 0.9808
vn -0.1951 -0.0000 0.9808
vn -0.5556 -0.0000 0.8315
vn -0.8315 -0.0000 0.5556
vn -0.9808 -0.0000 0.1951
vn -0.9808 -0.0000 -0.1951
vn -0.8315 -0.0000 -0.5556
vn -0.5556 -0.0000 -0.8315
vn 0.5556 -0.0000 -0.8315
vn 0.1951 -0.0000 -0.9808
vn 0.1884 -0.2588 -0.9474
vn 0.1379 -0.7071 -0.6935
vn 0.0505 -0.9659 -0.2538
vn 0.5366 -0.2588 -0.8031
vn 0.3928 -0.7071 -0.5879
vn 0.1438 -0.9659 -0.2152
vn 0.8031 -0.2588 -0.5366
vn 0.5879 -0.7071 -0.3928
vn 0.2152 -0.9659 -0.1438
vn 0.9474 -0.2588 -0.1884
vn 0.6935 -0.7071 -0.1379
vn 0.2538 -0.9659 -0.0505
vn 0.9474 -0.2588 0.1884
vn 0.6935 -0.7071 0.1379
vn 0.2538 -0.9659 0.0505
vn 0.8031 -0.2588 0.5366
vn 0.5879 -0.7071 0.3928
vn 0.2152 -0.9659 0.1438
vn 0.5366 -0.2588 0.8031
vn 0.3928 -0.7071 0.5879
vn 0.1438 -0.9659 0.2152
vn 0.1884 -0.2588 0.9474
vn 0.1379 -0.7071 0.6935
vn 0.0505 -0.9659 0.2538
vn -0.1884 -0.2588 0.9474
vn -0.1379 -0.7071 0.6935
vn -0.0505 -0.9659 0.2538
vn -0.5366 -0.2588 0.8031
vn -0.3928 -0.7071 0.5879
vn -0.1438 -0.9659 0.2152
vn -0.8031 -0.2588 0.5366
vn -0.5879 -0.7071 0.3928
vn -0.2152 -0.9659 0.1438
vn -0.9474 -0.2588 0.1884
vn -0.6935 -0.7071 0.1379
vn -0.2538 -0.9659 0.0505
vn -0.9474 -0.2588 -0.1884
vn -0.6935 -0.7071 -0.1379
vn -0.2538 -0.9659 -0.0505
vn -0.8031 -0.2588 -0.5366
vn -0.5879 -0.7071 -0.3928
vn -0.2152 -0.9659 -0.1438
vn -0.5366 -0.2588 -0.8031
vn -0.3928 -0.7071 -0.5879
vn -0.1438 -0.9659 -0.2152
vn -0.1884 -0.2588 -0.9474
vn -0.1379 -0.7071 -0.6935
vn -0.0505 -0.9659 -0.2538
vn -0.0000 -1.0000 -0.0000
vn -0.0000 1.0000 -0.0000
vn 0.7419 0.4514 -0.4957
vn 0.8752 0.4514 0.1741
vn 0.7419 0.4514 0.4957
vn 0.4957 0.4514 0.7419
vn 0.1741 0.4514 0.8752
vn -0.1741 0.4514 0.8752
vn -0.4957 0.4514 0.7419
vn -0.7419 0.4514 0.4957
vn -0.8752 0.4514 0.1741
vn -0.8752 0.4514 -0.1741
vn -0.7419 0.4514 -0.4957
vn -0.4957 0.4514 -0.7419
vn -0.1741 0.4514 -0.8752
vn 0.8752 0.4514 -0.1741
vn 0.0791 0.9967 -0.0157
vn -0.0791 0.9967 0.0157
vn 0.0791 0.9967 0.0157
vn -0.0791 0.9967 -0.0157
vn 0.0671 0.9967 0.0448
vn -0.0671 0.9967 -0.0448
vn 0.0448 0.9967 0.0671
vn -0.0448 0.9967 -0.0671
vn 0.0157 0.9967 0.0791
vn 0.0157 0.9967 -0.0791
vn -0.0157 0.9967 -0.0791
vn -0.0157 0.9967 0.0791
vn 0.0448 0.9967 -0.0671
vn -0.0448 0.9967 0.0671
vn 0.0671 0.9967 -0.0448
vn -0.0671 0.9967 0.0448
vn 0.4957 0.4514 -0.7419
vn 0.0761 0.9207 -0.3827
vn 0.2168 0.9207 -0.3244
vn 0.3244 0.9207 -0.2168
vn 0.3827 0.9207 -0.0761
vn 0.3827 0.9207 0.0761
vn 0.3244 0.9207 0.2168
vn 0.2168 0.9207 0.3244
vn 0.0761 0.9207 0.3827
vn -0.0761 0.9207 0.3827
vn -0.2168 0.9207 0.3244
vn -0.3244 0.9207 0.2168
vn -0.3827 0.9207 0.0761
vn -0.3827 0.9207 -0.0761
vn -0.3244 0.9207 -0.2168
vn -0.2168 0.9207 -0.3244
vn -0.0761 0.9207 -0.3827
vn 0.1741 0.4514 -0.8752
vt 0.049953 0.972885
vt 0.079036 0.972885
vt 0.079036 0.977989
vt 0.049953 0.977989
vt 0.049953 0.906530
vt 0.079036 0.906530
vt 0.079036 0.911634
vt 0.049953 0.911634
vt 0.079036 0.916738
vt 0.049953 0.916738
vt 0.079036 0.921843
vt 0.049953 0.921843
vt 0.079036 0.926947
vt 0.049953 0.926947
vt 0.079036 0.932051
vt 0.049953 0.932051
vt 0.079036 0.937155
vt 0.049953 0.937155
vt 0.079036 0.942260
vt 0.049953 0.942260
vt 0.079036 0.947364
vt 0.049953 0.947364
vt 0.079036 0.952468
vt 0.049953 0.952468
vt 0.079036 0.957572
vt 0.049953 0.957572
vt 0.079036 0.962677
vt 0.049953 0.962677
vt 0.079036 0.967781
vt 0.049953 0.967781
vt 0.084490 0.944800
vt 0.089068 0.940222
vt 0.049953 0.901425
vt 0.079036 0.901425
vt 0.049953 0.896321
vt 0.079036 0.896321
vt 0.038202 0.901314
vt 0.038202 0.896433
vt 0.114648 0.926280
vt 0.117447 0.919523
vt 0.114373 0.918745
vt 0.111924 0.924657
vt 0.111234 0.918120
vt 0.109263 0.922879
vt 0.038202 0.906418
vt 0.038202 0.901537
vt 0.117511 0.919202
vt 0.117511 0.911888
vt 0.114373 0.912345
vt 0.111234 0.912970
vt 0.038202 0.911522
vt 0.038202 0.906641
vt 0.117447 0.911567
vt 0.114648 0.904810
vt 0.111924 0.906433
vt 0.109263 0.908211
vt 0.038202 0.916627
vt 0.038202 0.911746
vt 0.114466 0.904537
vt 0.109295 0.899366
vt 0.107399 0.901908
vt 0.105621 0.904569
vt 0.038202 0.921731
vt 0.038202 0.916850
vt 0.109022 0.899184
vt 0.102265 0.896385
vt 0.101487 0.899459
vt 0.100862 0.902598
vt 0.038202 0.926835
vt 0.038202 0.921954
vt 0.101944 0.896321
vt 0.094630 0.896321
vt 0.095087 0.899459
vt 0.095712 0.902598
vt 0.038202 0.931939
vt 0.038202 0.927058
vt 0.094309 0.896385
vt 0.087552 0.899184
vt 0.089175 0.901908
vt 0.090953 0.904569
vt 0.038202 0.937044
vt 0.038202 0.932163
vt 0.087279 0.899366
vt 0.082108 0.904537
vt 0.084650 0.906433
vt 0.087311 0.908211
vt 0.038202 0.942148
vt 0.038202 0.937267
vt 0.081926 0.904810
vt 0.079127 0.911567
vt 0.082202 0.912345
vt 0.085340 0.912970
vt 0.038202 0.947252
vt 0.038202 0.942371
vt 0.079063 0.911888
vt 0.079063 0.919202
vt 0.082202 0.918745
vt 0.085340 0.918120
vt 0.038202 0.952356
vt 0.038202 0.947476
vt 0.079127 0.919523
vt 0.081926 0.926280
vt 0.084650 0.924657
vt 0.087311 0.922879
vt 0.038202 0.957461
vt 0.038202 0.952580
vt 0.082108 0.926553
vt 0.087279 0.931724
vt 0.089175 0.929182
vt 0.090953 0.926521
vt 0.038202 0.962565
vt 0.038202 0.957684
vt 0.087552 0.931906
vt 0.094309 0.934705
vt 0.095087 0.931630
vt 0.095712 0.928492
vt 0.038202 0.967669
vt 0.038202 0.962788
vt 0.094630 0.934769
vt 0.101944 0.934769
vt 0.101487 0.931630
vt 0.100862 0.928492
vt 0.038202 0.972774
vt 0.038202 0.967893
vt 0.102265 0.934705
vt 0.109022 0.931906
vt 0.107399 0.929182
vt 0.105621 0.926521
vt 0.038202 0.977878
vt 0.038202 0.972997
vt 0.109295 0.931724
vt 0.114466 0.926553
vt 0.084490 0.963239
vt 0.089068 0.967817
vt 0.087398 0.970317
vt 0.081990 0.964909
vt 0.095050 0.970295
vt 0.094463 0.973243
vt 0.101524 0.970295
vt 0.102111 0.973243
vt 0.107506 0.967817
vt 0.109176 0.970317
vt 0.112085 0.963239
vt 0.114584 0.964909
vt 0.114562 0.957257
vt 0.117511 0.957843
vt 0.114562 0.950782
vt 0.117511 0.950196
vt 0.112085 0.944800
vt 0.114584 0.943130
vt 0.107506 0.940222
vt 0.109176 0.937722
vt 0.101524 0.937744
vt 0.102111 0.934796
vt 0.095050 0.937744
vt 0.094463 0.934796
vt 0.087398 0.937722
vt 0.081990 0.943130
vt 0.082012 0.950782
vt 0.079063 0.950196
vt 0.082012 0.957257
vt 0.079063 0.957843
vt 0.445755 0.144652
vt 0.429519 0.144537
vt 0.427081 0.133010
vt 0.447886 0.133041
vt 0.414530 0.150607
vt 0.403071 0.162022
vt 0.393199 0.155622
vt 0.407861 0.140928
vt 0.396761 0.177051
vt 0.385234 0.174772
vt 0.396873 0.193274
vt 0.385234 0.195584
vt 0.402876 0.208250
vt 0.393128 0.214905
vt 0.414227 0.219776
vt 0.407834 0.229667
vt 0.429207 0.225969
vt 0.427076 0.237579
vt 0.445443 0.226084
vt 0.447881 0.237610
vt 0.460432 0.220013
vt 0.467101 0.229692
vt 0.471891 0.208598
vt 0.481763 0.214998
vt 0.478201 0.193569
vt 0.489728 0.195848
vt 0.478089 0.177346
vt 0.489728 0.175036
vt 0.472086 0.162370
vt 0.481834 0.155715
vt 0.437481 0.185310
vt 0.421370 0.160955
vt 0.431944 0.156686
vt 0.453592 0.209666
vt 0.443017 0.213934
vt 0.413303 0.169009
vt 0.461659 0.201611
vt 0.408973 0.179492
vt 0.465989 0.191128
vt 0.408908 0.190821
vt 0.466054 0.179800
vt 0.413164 0.201355
vt 0.453816 0.161133
vt 0.461798 0.169265
vt 0.421146 0.209487
vt 0.443299 0.156798
vt 0.431663 0.213823
vt 0.460735 0.150844
vt 0.467128 0.140953
s 0
usemtl Food_Color_mat
f 78/1/1 96/2/1 82/3/1 18/4/1
f 26/5/2 83/6/2 84/7/2 30/8/2
f 30/8/3 84/7/3 85/9/3 34/10/3
f 34/10/4 85/9/4 86/11/4 38/12/4
f 38/12/5 86/11/5 87/13/5 42/14/5
f 42/14/6 87/13/6 88/15/6 46/16/6
f 46/16/7 88/15/7 89/17/7 50/18/7
f 50/18/8 89/17/8 90/19/8 54/20/8
f 54/20/9 90/19/9 91/21/9 58/22/9
f 58/22/10 91/21/10 92/23/10 62/24/10
f 62/24/11 92/23/11 93/25/11 66/26/11
f 66/26/12 93/25/12 94/27/12 70/28/12
f 70/28/13 94/27/13 95/29/13 74/30/13
f 74/30/14 95/29/14 96/2/14 78/1/14
f 14/31/4 13/32/4 109/32/4 110/31/4
f 22/33/15 81/34/15 83/6/15 26/5/15
f 18/35/16 82/36/16 81/34/16 22/33/16
f 18/35/17 22/33/17 24/37/17 20/38/17
f 20/39/18 24/40/18 23/41/18 19/42/18
f 19/42/19 23/41/19 21/43/19 17/44/19
f 22/33/20 26/5/20 28/45/20 24/46/20
f 24/47/21 28/48/21 27/49/21 23/41/21
f 23/41/22 27/49/22 25/50/22 21/43/22
f 26/5/23 30/8/23 32/51/23 28/52/23
f 28/53/24 32/54/24 31/55/24 27/49/24
f 27/49/25 31/55/25 29/56/25 25/50/25
f 30/8/26 34/10/26 36/57/26 32/58/26
f 32/59/27 36/60/27 35/61/27 31/55/27
f 31/55/28 35/61/28 33/62/28 29/56/28
f 34/10/29 38/12/29 40/63/29 36/64/29
f 36/65/30 40/66/30 39/67/30 35/61/30
f 35/61/31 39/67/31 37/68/31 33/62/31
f 38/12/32 42/14/32 44/69/32 40/70/32
f 40/71/33 44/72/33 43/73/33 39/67/33
f 39/67/34 43/73/34 41/74/34 37/68/34
f 42/14/35 46/16/35 48/75/35 44/76/35
f 44/77/36 48/78/36 47/79/36 43/73/36
f 43/73/37 47/79/37 45/80/37 41/74/37
f 46/16/38 50/18/38 52/81/38 48/82/38
f 48/83/39 52/84/39 51/85/39 47/79/39
f 47/79/40 51/85/40 49/86/40 45/80/40
f 50/18/41 54/20/41 56/87/41 52/88/41
f 52/89/42 56/90/42 55/91/42 51/85/42
f 51/85/43 55/91/43 53/92/43 49/86/43
f 54/20/44 58/22/44 60/93/44 56/94/44
f 56/95/45 60/96/45 59/97/45 55/91/45
f 55/91/46 59/97/46 57/98/46 53/92/46
f 58/22/47 62/24/47 64/99/47 60/100/47
f 60/101/48 64/102/48 63/103/48 59/97/48
f 59/97/49 63/103/49 61/104/49 57/98/49
f 62/24/50 66/26/50 68/105/50 64/106/50
f 64/107/51 68/108/51 67/109/51 63/103/51
f 63/103/52 67/109/52 65/110/52 61/104/52
f 66/26/53 70/28/53 72/111/53 68/112/53
f 68/113/54 72/114/54 71/115/54 67/109/54
f 67/109/55 71/115/55 69/116/55 65/110/55
f 70/28/56 74/30/56 76/117/56 72/118/56
f 72/119/57 76/120/57 75/121/57 71/115/57
f 71/115/58 75/121/58 73/122/58 69/116/58
f 74/30/59 78/1/59 80/123/59 76/124/59
f 76/125/60 80/126/60 79/127/60 75/121/60
f 75/121/61 79/127/61 77/128/61 73/122/61
f 78/1/62 18/4/62 20/129/62 80/130/62
f 80/131/63 20/132/63 19/42/63 79/127/63
f 79/127/64 19/42/64 17/44/64 77/128/64
f 53/92/65 45/80/65 49/86/65
f 1/133/66 2/134/66 81/135/66 82/136/66
f 2/134/66 3/137/66 83/138/66 81/135/66
f 3/137/66 4/139/66 84/140/66 83/138/66
f 4/139/66 5/141/66 85/142/66 84/140/66
f 5/141/66 6/143/66 86/144/66 85/142/66
f 6/143/66 7/145/66 87/146/66 86/144/66
f 7/145/66 8/147/66 88/148/66 87/146/66
f 8/147/66 9/149/66 89/150/66 88/148/66
f 9/149/66 10/151/66 90/152/66 89/150/66
f 10/151/66 11/153/66 91/154/66 90/152/66
f 11/153/66 12/155/66 92/156/66 91/154/66
f 12/155/66 13/32/66 93/157/66 92/156/66
f 13/32/66 14/31/66 94/158/66 93/157/66
f 14/31/66 15/159/66 95/160/66 94/158/66
f 15/159/66 16/161/66 96/162/66 95/160/66
f 16/161/66 1/133/66 82/136/66 96/162/66
f 97/134/66 98/133/66 112/161/66 111/159/66 110/31/66 109/32/66 108/155/66 107/153/66 106/151/66 105/149/66 104/147/66 103/145/66 102/143/66 101/141/66 100/139/66 99/137/66
f 7/145/13 6/143/13 102/143/13 103/145/13
f 15/159/5 14/31/5 110/31/5 111/159/5
f 8/147/14 7/145/14 103/145/14 104/147/14
f 16/161/6 15/159/6 111/159/6 112/161/6
f 9/149/1 8/147/1 104/147/1 105/149/1
f 2/134/8 1/133/8 98/133/8 97/134/8
f 1/133/7 16/161/7 112/161/7 98/133/7
f 10/151/16 9/149/16 105/149/16 106/151/16
f 3/137/9 2/134/9 97/134/9 99/137/9
f 11/153/15 10/151/15 106/151/15 107/153/15
f 4/139/10 3/137/10 99/137/10 100/139/10
f 12/155/2 11/153/2 107/153/2 108/155/2
f 5/141/11 4/139/11 100/139/11 101/141/11
f 13/32/3 12/155/3 108/155/3 109/32/3
f 6/143/12 5/141/12 101/141/12 102/143/12
f 135/163/67 137/164/67 117/165/67 116/166/67
f 139/167/68 141/168/68 119/169/68 118/170/68
f 141/168/69 143/171/69 120/172/69 119/169/69
f 143/171/70 145/173/70 121/174/70 120/172/70
f 145/173/71 147/175/71 122/176/71 121/174/71
f 147/175/72 149/177/72 123/178/72 122/176/72
f 149/177/73 151/179/73 124/180/73 123/178/73
f 151/179/74 153/181/74 125/182/74 124/180/74
f 153/181/75 155/183/75 126/184/75 125/182/75
f 155/183/76 157/185/76 127/186/76 126/184/76
f 157/185/77 159/187/77 128/188/77 127/186/77
f 159/187/78 161/189/78 129/190/78 128/188/78
f 161/189/79 133/191/79 115/192/79 129/190/79
f 137/164/80 139/167/80 118/170/80 117/165/80
f 113/193/81 138/194/81 136/195/81
f 113/193/82 154/196/82 152/197/82
f 113/193/83 140/198/83 138/194/83
f 113/193/84 156/199/84 154/196/84
f 113/193/85 142/200/85 140/198/85
f 113/193/86 158/201/86 156/199/86
f 113/193/87 144/202/87 142/200/87
f 113/193/88 160/203/88 158/201/88
f 113/193/89 146/204/89 144/202/89
f 113/193/90 130/205/90 132/206/90
f 113/193/91 132/206/91 160/203/91
f 113/193/92 148/207/92 146/204/92
f 113/193/93 134/208/93 130/205/93
f 113/193/94 150/209/94 148/207/94
f 113/193/95 136/195/95 134/208/95
f 113/193/96 152/197/96 150/209/96
f 131/210/97 135/163/97 116/166/97 114/211/97
f 131/210/98 133/191/98 132/206/98 130/205/98
f 135/163/99 131/210/99 130/205/99 134/208/99
f 137/164/100 135/163/100 134/208/100 136/195/100
f 139/167/101 137/164/101 136/195/101 138/194/101
f 141/168/102 139/167/102 138/194/102 140/198/102
f 143/171/103 141/168/103 140/198/103 142/200/103
f 145/173/104 143/171/104 142/200/104 144/202/104
f 147/175/105 145/173/105 144/202/105 146/204/105
f 149/177/106 147/175/106 146/204/106 148/207/106
f 151/179/107 149/177/107 148/207/107 150/209/107
f 153/181/108 151/179/108 150/209/108 152/197/108
f 155/183/109 153/181/109 152/197/109 154/196/109
f 157/185/110 155/183/110 154/196/110 156/199/110
f 159/187/111 157/185/111 156/199/111 158/201/111
f 161/189/112 159/187/112 158/201/112 160/203/112
f 133/191/113 161/189/113 160/203/113 132/206/113
f 131/210/114 114/211/114 115/192/114 133/191/114
f 41/74/65 53/92/65 57/98/65
f 37/68/65 57/98/65 61/104/65
f 33/62/65 61/104/65 65/110/65
f 29/56/65 65/110/65 69/116/65
f 25/50/65 69/116/65 73/122/65
f 25/50/65 77/128/65 21/43/65
f 17/44/65 21/43/65 77/128/65
f 41/74/65 45/80/65 53/92/65
f 37/68/65 41/74/65 57/98/65
f 33/62/65 37/68/65 61/104/65
f 29/56/65 33/62/65 65/110/65
f 25/50/65 29/56/65 69/116/65
f 25/50/65 73/122/65 77/128/65
