# Blender v2.77 (sub 0) OBJ File: 'Funk.blend'
# www.blender.org
o SwitchBlade_Cube.002
v -0.013758 0.000000 0.110051
v -0.010484 -0.005355 -0.093592
v -0.010484 0.005355 -0.093592
v 0.012964 -0.003368 0.110051
v 0.012964 0.003368 0.110051
v 0.009690 -0.005355 -0.093592
v 0.009690 0.005355 -0.093592
v -0.013758 0.007092 0.081956
v -0.013758 -0.007092 0.081956
v 0.012964 0.007092 0.081956
v 0.012964 -0.007092 0.081956
v -0.032019 0.000000 0.096003
v -0.000397 0.000000 0.322794
v -0.013758 0.000000 0.255166
v 0.028475 0.000000 0.096003
v 0.012964 -0.003368 0.255166
v 0.012964 0.003368 0.255166
vt 0.903836 0.639233
vt 0.899463 0.548908
vt 0.899463 0.548908
vt 0.887912 0.640120
vt 0.903836 0.639233
vt 0.885140 0.538463
vt 0.885140 0.538463
vt 0.872793 0.546365
vt 0.884908 0.548668
vt 0.884908 0.548668
vt 0.898532 0.538314
vt 0.887912 0.640120
vt 0.913963 0.548354
vt 0.884333 0.461440
vt 0.884333 0.461440
vt 0.897726 0.461292
vt 0.890654 0.427472
vn -0.999800 0.000000 -0.018600
vn 0.000000 0.000000 -1.000000
vn 0.671300 0.000000 0.741200
vn 0.000000 -1.000000 -0.009900
vn 0.000000 1.000000 -0.009900
vn -0.121300 0.962400 0.243000
vn -0.121300 -0.962400 0.243000
vn 0.999800 0.000000 -0.018600
vn -0.609700 0.000000 -0.792600
vn -0.125100 0.992100 0.000000
vn -0.185000 -0.952800 0.240500
vn -0.185000 0.952800 0.240500
vn 1.000000 0.000000 0.000000
vn 0.317000 -0.940200 0.124600
vn 0.317000 0.940200 0.124600
vn 0.671300 0.000000 -0.741200
vn -0.125100 -0.992100 0.000000
vn 0.981000 0.000000 0.193800
vn -0.125000 -0.991800 0.024700
vn -0.125000 0.991800 0.024700
vn 0.000000 0.991300 0.131400
vn 0.000000 -0.991300 0.131400
s off
f 3/1/1 9/2/1 8/3/1
f 7/4/2 2/5/2 3/1/2
f 5/6/3 4/7/3 15/8/3
f 2/5/4 11/9/4 9/2/4
f 7/4/5 8/3/5 10/10/5
f 5/6/6 8/3/6 1/11/6
f 9/2/7 4/7/7 1/11/7
f 10/10/8 6/12/8 7/4/8
f 8/3/9 9/2/9 12/13/9
f 1/11/10 17/14/10 5/6/10
f 9/2/11 1/11/11 12/13/11
f 1/11/12 8/3/12 12/13/12
f 5/6/13 16/15/13 4/7/13
f 4/7/14 11/9/14 15/8/14
f 10/10/15 5/6/15 15/8/15
f 11/9/16 10/10/16 15/8/16
f 4/7/17 14/16/17 1/11/17
f 16/15/18 17/14/18 13/17/18
f 14/16/19 16/15/19 13/17/19
f 17/14/20 14/16/20 13/17/20
f 3/1/1 2/5/1 9/2/1
f 7/4/2 6/12/2 2/5/2
f 2/5/4 6/12/4 11/9/4
f 7/4/5 3/1/5 8/3/5
f 5/6/21 10/10/21 8/3/21
f 9/2/22 11/9/22 4/7/22
f 10/10/8 11/9/8 6/12/8
f 1/11/10 14/16/10 17/14/10
f 5/6/13 17/14/13 16/15/13
f 4/7/17 16/15/17 14/16/17
o BaseBallBat_Cylinder
v 0.000000 0.018557 -0.095603
v 0.000000 0.018557 0.095603
v 0.016071 0.009279 -0.095603
v 0.016071 0.009279 0.095603
v 0.016071 -0.009279 -0.095603
v 0.016071 -0.009279 0.095603
v -0.000000 -0.018557 -0.095603
v -0.000000 -0.018557 0.095603
v -0.016071 -0.009279 -0.095603
v -0.016071 -0.009279 0.095603
v -0.016071 0.009279 -0.095603
v -0.016071 0.009279 0.095603
v 0.035267 0.020361 0.697016
v 0.000000 0.040722 0.697016
v 0.035267 -0.020361 0.697016
v -0.000000 -0.040722 0.697016
v -0.035267 -0.020361 0.697016
v -0.035267 0.020361 0.697016
v 0.021567 0.012452 0.725474
v 0.000000 0.024903 0.725474
v 0.021567 -0.012452 0.725474
v -0.000000 -0.024903 0.725474
v -0.021567 -0.012452 0.725474
v -0.021567 0.012452 0.725474
vt 0.799411 0.508147
vt 0.805351 0.444798
vt 0.800404 0.444708
vt 0.804358 0.508237
vt 0.805351 0.444798
vt 0.804358 0.508237
vt 0.800404 0.444708
vt 0.799411 0.508147
vt 0.795456 0.444619
vt 0.785431 0.707487
vt 0.794463 0.508057
vt 0.795456 0.444619
vt 0.794463 0.508057
vt 0.789501 0.717005
vt 0.785431 0.707487
vt 0.807145 0.707882
vt 0.807145 0.707882
vt 0.796288 0.707684
vt 0.796288 0.707684
vt 0.796140 0.717126
vt 0.789501 0.717005
vt 0.802779 0.717247
vt 0.796140 0.717126
vt 0.802779 0.717247
vn 0.500000 0.866000 0.000000
vn 1.000000 0.000000 0.000000
vn 0.500000 -0.866000 0.000000
vn -0.500000 -0.866000 0.000000
vn -0.499700 -0.865600 -0.031900
vn -1.000000 0.000000 0.000000
vn -0.500000 0.866000 -0.000000
vn 0.000000 0.000000 -1.000000
vn -0.901000 0.000000 0.433800
vn 0.999500 0.000000 -0.031900
vn -0.999500 0.000000 -0.031900
vn 0.499700 0.865600 -0.031900
vn 0.499700 -0.865600 -0.031900
vn -0.499700 0.865600 -0.031900
vn -0.000000 0.000000 1.000000
vn 0.450500 -0.780300 0.433800
vn 0.450500 0.780300 0.433800
vn -0.450500 0.780300 0.433800
vn -0.450500 -0.780300 0.433800
vn 0.901000 0.000000 0.433800
s off
f 19/18/23 20/19/23 18/20/23
f 21/21/24 22/22/24 20/19/24
f 23/23/25 24/24/25 22/22/25
f 25/25/26 26/26/26 24/24/26
f 25/25/27 34/27/27 27/28/27
f 27/28/28 28/29/28 26/26/28
f 29/30/29 18/20/29 28/29/29
f 20/19/30 26/26/30 28/29/30
f 34/27/31 41/31/31 35/32/31
f 21/21/32 32/33/32 23/23/32
f 27/28/33 35/32/33 29/30/33
f 19/18/34 30/34/34 21/21/34
f 23/23/35 33/35/35 25/25/35
f 19/18/36 35/32/36 31/36/36
f 37/37/37 40/38/37 38/39/37
f 32/33/38 39/40/38 33/35/38
f 31/36/39 36/41/39 30/34/39
f 35/32/40 37/37/40 31/36/40
f 33/35/41 40/38/41 34/27/41
f 30/34/42 38/39/42 32/33/42
f 19/18/23 21/21/23 20/19/23
f 21/21/24 23/23/24 22/22/24
f 23/23/25 25/25/25 24/24/25
f 25/25/26 27/28/26 26/26/26
f 25/25/27 33/35/27 34/27/27
f 27/28/28 29/30/28 28/29/28
f 29/30/29 19/18/29 18/20/29
f 28/29/30 18/20/30 20/19/30
f 20/19/30 22/22/30 24/24/30
f 24/24/30 26/26/30 20/19/30
f 34/27/31 40/38/31 41/31/31
f 21/21/32 30/34/32 32/33/32
f 27/28/33 34/27/33 35/32/33
f 19/18/34 31/36/34 30/34/34
f 23/23/35 32/33/35 33/35/35
f 19/18/36 29/30/36 35/32/36
f 38/39/37 36/41/37 37/37/37
f 37/37/37 41/31/37 40/38/37
f 40/38/37 39/40/37 38/39/37
f 32/33/38 38/39/38 39/40/38
f 31/36/39 37/37/39 36/41/39
f 35/32/40 41/31/40 37/37/40
f 33/35/41 39/40/41 40/38/41
f 30/34/42 36/41/42 38/39/42
